M48
;DRILL file {KiCad (5.0.0-3-g5ebb6b6)} date Monday, 29 July 2019 at 21:46:33
;FORMAT={-:-/ absolute / inch / decimal}
FMAT,2
INCH,TZ
T1C0.0157
T2C0.0276
T3C0.0315
T4C0.0394
T5C0.0433
T6C0.0591
%
G90
G05
M72
T1
X4.2634Y-7.3582
X4.3079Y-7.6231
X4.597Y-7.1376
X4.6637Y-4.8239
X4.7557Y-3.7809
X4.8659Y-6.296
X4.8806Y-6.8174
X4.8897Y-5.0347
X4.9159Y-4.9863
X4.9547Y-6.1311
X5.0253Y-4.3024
X5.0588Y-6.4181
X5.0588Y-7.5963
X5.0609Y-5.55
X5.0696Y-6.0414
X5.17Y-4.7466
X5.2078Y-5.717
X5.2577Y-5.8907
X5.2762Y-4.2307
X5.2811Y-3.7627
X5.3735Y-5.5427
X5.383Y-6.6442
X5.401Y-7.2234
X5.5158Y-7.0929
X5.5512Y-7.6255
X5.5664Y-7.6866
X5.5677Y-6.9703
X5.6303Y-5.9688
X5.6785Y-6.0469
X5.7608Y-3.2993
X5.7769Y-6.3684
X5.7945Y-3.6603
X5.8736Y-7.1303
X5.8736Y-7.8207
X5.8898Y-7.6652
X5.8987Y-5.9214
X5.9655Y-7.0034
X6.0214Y-4.1854
X6.0764Y-7.5634
X6.1669Y-6.7804
X6.2092Y-6.0316
X6.2293Y-7.3976
X6.2812Y-5.8231
X6.2975Y-2.5877
X6.3336Y-1.9952
X6.3583Y-7.0764
X6.4075Y-7.1878
X6.4263Y-6.0692
X6.4454Y-6.9626
X6.4512Y-6.0948
X6.4741Y-7.3645
X6.4878Y-2.5076
X6.4982Y-4.1813
X6.5251Y-6.0555
X6.5588Y-5.7191
X6.5854Y-4.1862
X6.8133Y-3.647
X6.8541Y-2.9489
X6.9186Y-3.2596
X6.9471Y-3.6772
X6.9656Y-2.6869
X6.9985Y-5.8428
X6.9989Y-3.6761
X7.0447Y-1.8692
X7.0733Y-6.4063
X7.1165Y-6.4074
X7.1451Y-7.1699
X7.2271Y-3.1241
X7.4732Y-6.4648
X7.4732Y-7.1511
X7.4737Y-5.7792
X7.5685Y-4.1532
X7.5942Y-4.0985
X7.6111Y-5.9283
X7.6188Y-4.0696
X7.6393Y-4.2192
X7.6534Y-6.0209
X7.667Y-7.112
X7.7695Y-6.3592
X7.8051Y-6.8217
X7.8109Y-4.5714
X7.8195Y-6.5441
X7.9107Y-4.2838
X7.9405Y-3.9955
X8.055Y-7.3596
X8.0626Y-4.3545
X8.0728Y-4.1154
X8.0976Y-4.1754
T2
X7.095Y-3.9964
X7.295Y-3.9964
X7.095Y-2.475
X7.295Y-2.475
X4.6975Y-4.1325
X4.8975Y-4.1325
X7.095Y-2.7286
X7.295Y-2.7286
X7.095Y-3.4893
X7.295Y-3.4893
X4.6975Y-3.9825
X4.8975Y-3.9825
X7.095Y-4.25
X7.295Y-4.25
X7.095Y-2.9821
X7.295Y-2.9821
X4.6975Y-4.4325
X4.8975Y-4.4325
X7.095Y-3.7429
X7.295Y-3.7429
X4.6975Y-4.2825
X4.8975Y-4.2825
X4.6975Y-3.8325
X4.8975Y-3.8325
X7.095Y-3.2357
X7.295Y-3.2357
T3
X7.47Y-1.775
X7.47Y-1.875
X7.47Y-1.975
X7.47Y-2.075
X7.47Y-2.175
X7.47Y-2.275
X7.47Y-2.375
X7.47Y-2.475
X7.47Y-2.575
X7.47Y-2.675
X7.47Y-2.775
X7.47Y-2.875
X7.47Y-2.975
X7.47Y-3.075
X7.77Y-1.775
X7.77Y-1.875
X7.77Y-1.975
X7.77Y-2.075
X7.77Y-2.175
X7.77Y-2.275
X7.77Y-2.375
X7.77Y-2.475
X7.77Y-2.575
X7.77Y-2.675
X7.77Y-2.775
X7.77Y-2.875
X7.77Y-2.975
X7.77Y-3.075
X7.445Y-3.4
X7.445Y-3.5
X7.445Y-3.6
X7.445Y-3.7
X7.445Y-3.8
X7.445Y-3.9
X7.445Y-4.
X7.445Y-4.1
X7.445Y-4.2
X7.445Y-4.3
X7.445Y-4.4
X7.445Y-4.5
X7.445Y-4.6
X7.445Y-4.7
X7.745Y-3.4
X7.745Y-3.5
X7.745Y-3.6
X7.745Y-3.7
X7.745Y-3.8
X7.745Y-3.9
X7.745Y-4.
X7.745Y-4.1
X7.745Y-4.2
X7.745Y-4.3
X7.745Y-4.4
X7.745Y-4.5
X7.745Y-4.6
X7.745Y-4.7
T4
X5.8183Y-5.475
X5.9167Y-5.475
X6.0151Y-5.475
X5.1833Y-5.475
X5.2817Y-5.475
X5.3802Y-5.475
X7.97Y-5.775
X7.97Y-5.875
X7.97Y-5.975
X7.97Y-6.075
X7.97Y-6.175
X7.97Y-6.275
X6.4975Y-6.2325
X6.5975Y-6.2325
X6.6975Y-6.2325
X6.7975Y-6.2325
X6.8975Y-6.2325
X6.9975Y-6.2325
X6.2975Y-4.3325
X6.3975Y-4.3325
X6.4975Y-4.3325
X6.5975Y-4.3325
X6.6975Y-4.3325
X6.7975Y-4.3325
X6.8975Y-4.3325
X6.9975Y-4.3325
X7.7231Y-5.475
X7.8216Y-5.475
X7.92Y-5.475
X6.4532Y-5.475
X6.5517Y-5.475
X6.6501Y-5.475
X5.2475Y-4.3323
X5.3475Y-4.3323
X5.4475Y-4.3323
X5.5475Y-4.3323
X5.6475Y-4.3323
X5.7475Y-4.3323
X5.8475Y-4.3323
X5.9475Y-4.3323
X6.0475Y-4.3323
X6.1475Y-4.3323
X6.5676Y-2.0541
X6.5676Y-2.625
X6.6661Y-2.625
X6.7645Y-2.0541
X6.7645Y-2.625
X7.97Y-6.575
X7.97Y-6.675
X7.97Y-6.775
X7.97Y-6.875
X7.97Y-6.975
X7.97Y-7.075
X7.97Y-7.175
X7.97Y-7.275
X7.97Y-7.375
X7.97Y-7.475
X7.97Y-7.575
X7.97Y-7.675
X7.97Y-7.775
X7.97Y-7.875
X7.97Y-7.975
X7.97Y-8.075
X4.62Y-4.675
X4.72Y-4.675
X4.82Y-4.675
X4.92Y-4.675
X5.02Y-4.675
X5.12Y-4.675
X5.22Y-4.675
X5.32Y-4.675
X5.42Y-4.675
X5.52Y-4.675
X5.62Y-4.675
X5.72Y-4.675
X5.82Y-4.675
X5.92Y-4.675
X4.445Y-5.775
X4.445Y-5.875
X4.445Y-5.975
X4.445Y-6.075
X4.445Y-6.175
X4.445Y-6.275
X4.445Y-6.375
X4.445Y-6.475
X4.445Y-6.575
X4.445Y-6.675
X5.5975Y-6.2325
X5.6975Y-6.2325
X5.7975Y-6.2325
X5.8975Y-6.2325
X5.9975Y-6.2325
X6.0975Y-6.2325
X6.1975Y-6.2325
X6.2975Y-6.2325
X7.195Y-1.6
X7.195Y-1.7
X7.195Y-1.8
X7.195Y-1.9
X7.195Y-2.
X7.195Y-2.1
X7.195Y-2.2
X7.195Y-2.3
X4.5483Y-5.4756
X4.6468Y-5.4756
X4.7452Y-5.4756
X4.445Y-6.875
X4.445Y-6.975
X4.445Y-7.075
X4.445Y-7.175
X4.445Y-7.275
X4.445Y-7.375
X4.445Y-7.475
X4.445Y-7.575
X4.445Y-3.175
X4.445Y-3.275
X4.445Y-3.375
X4.445Y-3.475
X4.445Y-3.575
X4.445Y-3.675
X4.445Y-3.775
X4.445Y-3.875
X4.445Y-3.975
X4.445Y-4.075
X4.445Y-4.175
X4.445Y-4.275
X4.445Y-4.375
X4.445Y-4.475
X4.445Y-4.575
X4.445Y-4.675
X6.57Y-2.8441
X6.57Y-3.415
X6.6684Y-3.415
X6.7669Y-2.8441
X6.7669Y-3.415
X7.0882Y-5.475
X7.1866Y-5.475
X7.285Y-5.475
X4.445Y-7.875
X4.445Y-7.975
T5
X5.792Y-6.6177
X5.792Y-6.7949
X6.048Y-6.6177
X6.048Y-6.7949
X5.292Y-7.2927
X5.292Y-7.4699
X5.548Y-7.2927
X5.548Y-7.4699
X7.492Y-6.6177
X7.492Y-6.7949
X7.748Y-6.6177
X7.748Y-6.7949
X5.292Y-5.9427
X5.292Y-6.1199
X5.548Y-5.9427
X5.548Y-6.1199
X6.967Y-5.9427
X6.967Y-6.1199
X7.223Y-5.9427
X7.223Y-6.1199
X4.792Y-6.6177
X4.792Y-6.7949
X5.048Y-6.6177
X5.048Y-6.7949
X7.492Y-7.2927
X7.492Y-7.4699
X7.748Y-7.2927
X7.748Y-7.4699
X6.967Y-7.9677
X6.967Y-8.1449
X7.223Y-7.9677
X7.223Y-8.1449
X5.792Y-7.9677
X5.792Y-8.1449
X6.048Y-7.9677
X6.048Y-8.1449
X6.292Y-6.6177
X6.292Y-6.7949
X6.548Y-6.6177
X6.548Y-6.7949
X5.792Y-5.9427
X5.792Y-6.1199
X6.048Y-5.9427
X6.048Y-6.1199
X6.292Y-7.2927
X6.292Y-7.4699
X6.548Y-7.2927
X6.548Y-7.4699
X6.967Y-6.6177
X6.967Y-6.7949
X7.223Y-6.6177
X7.223Y-6.7949
X7.492Y-7.9677
X7.492Y-8.1449
X7.748Y-7.9677
X7.748Y-8.1449
X5.292Y-7.9677
X5.292Y-8.1449
X5.548Y-7.9677
X5.548Y-8.1449
X5.292Y-6.6177
X5.292Y-6.7949
X5.548Y-6.6177
X5.548Y-6.7949
X5.792Y-7.2927
X5.792Y-7.4699
X6.048Y-7.2927
X6.048Y-7.4699
X6.5381Y-3.96
X6.5381Y-4.1372
X6.794Y-3.96
X6.794Y-4.1372
X7.492Y-5.9427
X7.492Y-6.1199
X7.748Y-5.9427
X7.748Y-6.1199
X4.792Y-5.9427
X4.792Y-6.1199
X5.048Y-5.9427
X5.048Y-6.1199
X4.792Y-7.9677
X4.792Y-8.1449
X5.048Y-7.9677
X5.048Y-8.1449
X6.292Y-7.9677
X6.292Y-8.1449
X6.548Y-7.9677
X6.548Y-8.1449
X4.792Y-7.2927
X4.792Y-7.4699
X5.048Y-7.2927
X5.048Y-7.4699
X6.292Y-5.9427
X6.292Y-6.1199
X6.548Y-5.9427
X6.548Y-6.1199
X6.967Y-7.2927
X6.967Y-7.4699
X7.223Y-7.2927
X7.223Y-7.4699
T6
X6.4456Y-2.3553G85X6.4456Y-2.3041
G05
X6.8865Y-2.3553G85X6.8865Y-2.3041
G05
X6.448Y-3.1453G85X6.448Y-3.0941
G05
X6.8889Y-3.1453G85X6.8889Y-3.0941
G05
T0
M30
