G04 #@! TF.GenerationSoftware,KiCad,Pcbnew,(5.0.0-3-g5ebb6b6)*
G04 #@! TF.CreationDate,2019-07-29T21:46:36+01:00*
G04 #@! TF.ProjectId,DrumMachine-Arduino,4472756D4D616368696E652D41726475,rev?*
G04 #@! TF.SameCoordinates,Original*
G04 #@! TF.FileFunction,Legend,Bot*
G04 #@! TF.FilePolarity,Positive*
%FSLAX46Y46*%
G04 Gerber Fmt 4.6, Leading zero omitted, Abs format (unit mm)*
G04 Created by KiCad (PCBNEW (5.0.0-3-g5ebb6b6)) date Monday, 29 July 2019 at 21:46:36*
%MOMM*%
%LPD*%
G01*
G04 APERTURE LIST*
%ADD10C,0.150000*%
%ADD11C,0.120000*%
G04 APERTURE END LIST*
D10*
X105918000Y-217805000D02*
X105918000Y-34925000D01*
X210058000Y-217805000D02*
X105918000Y-217805000D01*
X210058000Y-34925000D02*
X210058000Y-217805000D01*
X105918000Y-34925000D02*
X210058000Y-34925000D01*
D11*
G04 #@! TO.C,P2*
X163706000Y-156976000D02*
X163706000Y-158306000D01*
X165036000Y-156976000D02*
X163706000Y-156976000D01*
X166306000Y-156976000D02*
X166306000Y-159636000D01*
X166306000Y-159636000D02*
X179066000Y-159636000D01*
X166306000Y-156976000D02*
X179066000Y-156976000D01*
X179066000Y-156976000D02*
X179066000Y-159636000D01*
G04 #@! TO.C,P1*
X140846000Y-156976000D02*
X140846000Y-158306000D01*
X142176000Y-156976000D02*
X140846000Y-156976000D01*
X143446000Y-156976000D02*
X143446000Y-159636000D01*
X143446000Y-159636000D02*
X161286000Y-159636000D01*
X143446000Y-156976000D02*
X161286000Y-156976000D01*
X161286000Y-156976000D02*
X161286000Y-159636000D01*
G04 #@! TO.C,P4*
X179066000Y-108716000D02*
X179066000Y-111376000D01*
X161226000Y-108716000D02*
X179066000Y-108716000D01*
X161226000Y-111376000D02*
X179066000Y-111376000D01*
X161226000Y-108716000D02*
X161226000Y-111376000D01*
X159956000Y-108716000D02*
X158626000Y-108716000D01*
X158626000Y-108716000D02*
X158626000Y-110046000D01*
G04 #@! TO.C,P3*
X131956000Y-108711000D02*
X131956000Y-110041000D01*
X133286000Y-108711000D02*
X131956000Y-108711000D01*
X134556000Y-108711000D02*
X134556000Y-111371000D01*
X134556000Y-111371000D02*
X157476000Y-111371000D01*
X134556000Y-108711000D02*
X157476000Y-108711000D01*
X157476000Y-108711000D02*
X157476000Y-111371000D01*
G04 #@! TD*
G04 #@! TO.C,P2*
D10*
X163158380Y-157567904D02*
X162158380Y-157567904D01*
X162158380Y-157948857D01*
X162206000Y-158044095D01*
X162253619Y-158091714D01*
X162348857Y-158139333D01*
X162491714Y-158139333D01*
X162586952Y-158091714D01*
X162634571Y-158044095D01*
X162682190Y-157948857D01*
X162682190Y-157567904D01*
X162253619Y-158520285D02*
X162206000Y-158567904D01*
X162158380Y-158663142D01*
X162158380Y-158901238D01*
X162206000Y-158996476D01*
X162253619Y-159044095D01*
X162348857Y-159091714D01*
X162444095Y-159091714D01*
X162586952Y-159044095D01*
X163158380Y-158472666D01*
X163158380Y-159091714D01*
G04 #@! TO.C,P1*
X140298380Y-157567904D02*
X139298380Y-157567904D01*
X139298380Y-157948857D01*
X139346000Y-158044095D01*
X139393619Y-158091714D01*
X139488857Y-158139333D01*
X139631714Y-158139333D01*
X139726952Y-158091714D01*
X139774571Y-158044095D01*
X139822190Y-157948857D01*
X139822190Y-157567904D01*
X140298380Y-159091714D02*
X140298380Y-158520285D01*
X140298380Y-158806000D02*
X139298380Y-158806000D01*
X139441238Y-158710761D01*
X139536476Y-158615523D01*
X139584095Y-158520285D01*
G04 #@! TO.C,P4*
X158078380Y-109307904D02*
X157078380Y-109307904D01*
X157078380Y-109688857D01*
X157126000Y-109784095D01*
X157173619Y-109831714D01*
X157268857Y-109879333D01*
X157411714Y-109879333D01*
X157506952Y-109831714D01*
X157554571Y-109784095D01*
X157602190Y-109688857D01*
X157602190Y-109307904D01*
X157411714Y-110736476D02*
X158078380Y-110736476D01*
X157030761Y-110498380D02*
X157745047Y-110260285D01*
X157745047Y-110879333D01*
G04 #@! TO.C,P3*
X131408380Y-109302904D02*
X130408380Y-109302904D01*
X130408380Y-109683857D01*
X130456000Y-109779095D01*
X130503619Y-109826714D01*
X130598857Y-109874333D01*
X130741714Y-109874333D01*
X130836952Y-109826714D01*
X130884571Y-109779095D01*
X130932190Y-109683857D01*
X130932190Y-109302904D01*
X130408380Y-110207666D02*
X130408380Y-110826714D01*
X130789333Y-110493380D01*
X130789333Y-110636238D01*
X130836952Y-110731476D01*
X130884571Y-110779095D01*
X130979809Y-110826714D01*
X131217904Y-110826714D01*
X131313142Y-110779095D01*
X131360761Y-110731476D01*
X131408380Y-110636238D01*
X131408380Y-110350523D01*
X131360761Y-110255285D01*
X131313142Y-110207666D01*
G04 #@! TD*
M02*
