G04 #@! TF.GenerationSoftware,KiCad,Pcbnew,(5.0.0-3-g5ebb6b6)*
G04 #@! TF.CreationDate,2019-07-29T21:46:36+01:00*
G04 #@! TF.ProjectId,DrumMachine-Arduino,4472756D4D616368696E652D41726475,rev?*
G04 #@! TF.SameCoordinates,Original*
G04 #@! TF.FileFunction,Soldermask,Top*
G04 #@! TF.FilePolarity,Negative*
%FSLAX46Y46*%
G04 Gerber Fmt 4.6, Leading zero omitted, Abs format (unit mm)*
G04 Created by KiCad (PCBNEW (5.0.0-3-g5ebb6b6)) date Monday, 29 July 2019 at 21:46:36*
%MOMM*%
%LPD*%
G01*
G04 APERTURE LIST*
%ADD10C,0.150000*%
%ADD11O,1.700000X1.700000*%
%ADD12R,1.700000X1.700000*%
%ADD13R,1.500000X1.000000*%
%ADD14O,1.600000X1.600000*%
%ADD15R,1.600000X1.600000*%
%ADD16O,1.400000X1.400000*%
%ADD17C,1.400000*%
%ADD18C,2.000000*%
%ADD19R,2.000000X2.000000*%
%ADD20R,2.000000X3.200000*%
%ADD21C,1.800000*%
%ADD22C,4.000000*%
%ADD23C,0.100000*%
%ADD24C,1.250000*%
G04 APERTURE END LIST*
D10*
X105918000Y-217805000D02*
X105918000Y-34925000D01*
X210058000Y-217805000D02*
X105918000Y-217805000D01*
X210058000Y-34925000D02*
X210058000Y-217805000D01*
X105918000Y-34925000D02*
X210058000Y-34925000D01*
D11*
G04 #@! TO.C,P2*
X177736000Y-158306000D03*
X175196000Y-158306000D03*
X172656000Y-158306000D03*
X170116000Y-158306000D03*
X167576000Y-158306000D03*
D12*
X165036000Y-158306000D03*
G04 #@! TD*
D11*
G04 #@! TO.C,P1*
X159956000Y-158306000D03*
X157416000Y-158306000D03*
X154876000Y-158306000D03*
X152336000Y-158306000D03*
X149796000Y-158306000D03*
X147256000Y-158306000D03*
X144716000Y-158306000D03*
D12*
X142176000Y-158306000D03*
G04 #@! TD*
G04 #@! TO.C,P4*
X159956000Y-110046000D03*
D11*
X162496000Y-110046000D03*
X165036000Y-110046000D03*
X167576000Y-110046000D03*
X170116000Y-110046000D03*
X172656000Y-110046000D03*
X175196000Y-110046000D03*
X177736000Y-110046000D03*
G04 #@! TD*
G04 #@! TO.C,P3*
X156146000Y-110041000D03*
X153606000Y-110041000D03*
X151066000Y-110041000D03*
X148526000Y-110041000D03*
X145986000Y-110041000D03*
X143446000Y-110041000D03*
X140906000Y-110041000D03*
X138366000Y-110041000D03*
X135826000Y-110041000D03*
D12*
X133286000Y-110041000D03*
G04 #@! TD*
D13*
G04 #@! TO.C,D1*
X127418000Y-147015000D03*
X127418000Y-143815000D03*
X122518000Y-147015000D03*
X122518000Y-143815000D03*
G04 #@! TD*
G04 #@! TO.C,D2*
X140118000Y-147015000D03*
X140118000Y-143815000D03*
X135218000Y-147015000D03*
X135218000Y-143815000D03*
G04 #@! TD*
G04 #@! TO.C,D3*
X152818000Y-147015000D03*
X152818000Y-143815000D03*
X147918000Y-147015000D03*
X147918000Y-143815000D03*
G04 #@! TD*
G04 #@! TO.C,D4*
X165518000Y-147015000D03*
X165518000Y-143815000D03*
X160618000Y-147015000D03*
X160618000Y-143815000D03*
G04 #@! TD*
G04 #@! TO.C,D5*
X127418000Y-164160000D03*
X127418000Y-160960000D03*
X122518000Y-164160000D03*
X122518000Y-160960000D03*
G04 #@! TD*
G04 #@! TO.C,D6*
X140118000Y-164160000D03*
X140118000Y-160960000D03*
X135218000Y-164160000D03*
X135218000Y-160960000D03*
G04 #@! TD*
G04 #@! TO.C,D7*
X152818000Y-164160000D03*
X152818000Y-160960000D03*
X147918000Y-164160000D03*
X147918000Y-160960000D03*
G04 #@! TD*
G04 #@! TO.C,D8*
X165518000Y-164160000D03*
X165518000Y-160960000D03*
X160618000Y-164160000D03*
X160618000Y-160960000D03*
G04 #@! TD*
G04 #@! TO.C,D9*
X127418000Y-181305000D03*
X127418000Y-178105000D03*
X122518000Y-181305000D03*
X122518000Y-178105000D03*
G04 #@! TD*
G04 #@! TO.C,D10*
X140118000Y-181305000D03*
X140118000Y-178105000D03*
X135218000Y-181305000D03*
X135218000Y-178105000D03*
G04 #@! TD*
G04 #@! TO.C,D11*
X152818000Y-181305000D03*
X152818000Y-178105000D03*
X147918000Y-181305000D03*
X147918000Y-178105000D03*
G04 #@! TD*
G04 #@! TO.C,D12*
X165518000Y-181305000D03*
X165518000Y-178105000D03*
X160618000Y-181305000D03*
X160618000Y-178105000D03*
G04 #@! TD*
G04 #@! TO.C,D13*
X127418000Y-198450000D03*
X127418000Y-195250000D03*
X122518000Y-198450000D03*
X122518000Y-195250000D03*
G04 #@! TD*
G04 #@! TO.C,D14*
X140118000Y-198450000D03*
X140118000Y-195250000D03*
X135218000Y-198450000D03*
X135218000Y-195250000D03*
G04 #@! TD*
G04 #@! TO.C,D15*
X152818000Y-198450000D03*
X152818000Y-195250000D03*
X147918000Y-198450000D03*
X147918000Y-195250000D03*
G04 #@! TD*
G04 #@! TO.C,D16*
X165518000Y-198450000D03*
X165518000Y-195250000D03*
X160618000Y-198450000D03*
X160618000Y-195250000D03*
G04 #@! TD*
G04 #@! TO.C,D17*
X182663000Y-147015000D03*
X182663000Y-143815000D03*
X177763000Y-147015000D03*
X177763000Y-143815000D03*
G04 #@! TD*
G04 #@! TO.C,D18*
X182663000Y-164160000D03*
X182663000Y-160960000D03*
X177763000Y-164160000D03*
X177763000Y-160960000D03*
G04 #@! TD*
G04 #@! TO.C,D19*
X182663000Y-181305000D03*
X182663000Y-178105000D03*
X177763000Y-181305000D03*
X177763000Y-178105000D03*
G04 #@! TD*
G04 #@! TO.C,D20*
X182663000Y-198450000D03*
X182663000Y-195250000D03*
X177763000Y-198450000D03*
X177763000Y-195250000D03*
G04 #@! TD*
G04 #@! TO.C,D21*
X195998000Y-147015000D03*
X195998000Y-143815000D03*
X191098000Y-147015000D03*
X191098000Y-143815000D03*
G04 #@! TD*
G04 #@! TO.C,D22*
X195998000Y-164160000D03*
X195998000Y-160960000D03*
X191098000Y-164160000D03*
X191098000Y-160960000D03*
G04 #@! TD*
G04 #@! TO.C,D23*
X195998000Y-181305000D03*
X195998000Y-178105000D03*
X191098000Y-181305000D03*
X191098000Y-178105000D03*
G04 #@! TD*
G04 #@! TO.C,D24*
X195998000Y-198450000D03*
X195998000Y-195250000D03*
X191098000Y-198450000D03*
X191098000Y-195250000D03*
G04 #@! TD*
G04 #@! TO.C,D50*
X171768000Y-95834000D03*
X171768000Y-92634000D03*
X166868000Y-95834000D03*
X166868000Y-92634000D03*
G04 #@! TD*
D14*
G04 #@! TO.C,U1*
X197358000Y-45085000D03*
X189738000Y-78105000D03*
X197358000Y-47625000D03*
X189738000Y-75565000D03*
X197358000Y-50165000D03*
X189738000Y-73025000D03*
X197358000Y-52705000D03*
X189738000Y-70485000D03*
X197358000Y-55245000D03*
X189738000Y-67945000D03*
X197358000Y-57785000D03*
X189738000Y-65405000D03*
X197358000Y-60325000D03*
X189738000Y-62865000D03*
X197358000Y-62865000D03*
X189738000Y-60325000D03*
X197358000Y-65405000D03*
X189738000Y-57785000D03*
X197358000Y-67945000D03*
X189738000Y-55245000D03*
X197358000Y-70485000D03*
X189738000Y-52705000D03*
X197358000Y-73025000D03*
X189738000Y-50165000D03*
X197358000Y-75565000D03*
X189738000Y-47625000D03*
X197358000Y-78105000D03*
D15*
X189738000Y-45085000D03*
G04 #@! TD*
D16*
G04 #@! TO.C,R1*
X119316000Y-97345500D03*
D17*
X124396000Y-97345500D03*
G04 #@! TD*
D16*
G04 #@! TO.C,R2*
X119316000Y-101156000D03*
D17*
X124396000Y-101156000D03*
G04 #@! TD*
D11*
G04 #@! TO.C,J7*
X112903000Y-169545000D03*
X112903000Y-167005000D03*
X112903000Y-164465000D03*
X112903000Y-161925000D03*
X112903000Y-159385000D03*
X112903000Y-156845000D03*
X112903000Y-154305000D03*
X112903000Y-151765000D03*
X112903000Y-149225000D03*
D12*
X112903000Y-146685000D03*
G04 #@! TD*
D11*
G04 #@! TO.C,J8*
X182753000Y-40640000D03*
X182753000Y-43180000D03*
X182753000Y-45720000D03*
X182753000Y-48260000D03*
X182753000Y-50800000D03*
X182753000Y-53340000D03*
X182753000Y-55880000D03*
D12*
X182753000Y-58420000D03*
G04 #@! TD*
D14*
G04 #@! TO.C,U2*
X196723000Y-86360000D03*
X189103000Y-119380000D03*
X196723000Y-88900000D03*
X189103000Y-116840000D03*
X196723000Y-91440000D03*
X189103000Y-114300000D03*
X196723000Y-93980000D03*
X189103000Y-111760000D03*
X196723000Y-96520000D03*
X189103000Y-109220000D03*
X196723000Y-99060000D03*
X189103000Y-106680000D03*
X196723000Y-101600000D03*
X189103000Y-104140000D03*
X196723000Y-104140000D03*
X189103000Y-101600000D03*
X196723000Y-106680000D03*
X189103000Y-99060000D03*
X196723000Y-109220000D03*
X189103000Y-96520000D03*
X196723000Y-111760000D03*
X189103000Y-93980000D03*
X196723000Y-114300000D03*
X189103000Y-91440000D03*
X196723000Y-116840000D03*
X189103000Y-88900000D03*
X196723000Y-119380000D03*
D15*
X189103000Y-86360000D03*
G04 #@! TD*
D18*
G04 #@! TO.C,SW1*
X128218000Y-150945000D03*
X128218000Y-155445000D03*
X121718000Y-150945000D03*
X121718000Y-155445000D03*
G04 #@! TD*
G04 #@! TO.C,SW2*
X140918000Y-150945000D03*
X140918000Y-155445000D03*
X134418000Y-150945000D03*
X134418000Y-155445000D03*
G04 #@! TD*
G04 #@! TO.C,SW3*
X153618000Y-150945000D03*
X153618000Y-155445000D03*
X147118000Y-150945000D03*
X147118000Y-155445000D03*
G04 #@! TD*
G04 #@! TO.C,SW4*
X166318000Y-150945000D03*
X166318000Y-155445000D03*
X159818000Y-150945000D03*
X159818000Y-155445000D03*
G04 #@! TD*
G04 #@! TO.C,SW5*
X128218000Y-168090000D03*
X128218000Y-172590000D03*
X121718000Y-168090000D03*
X121718000Y-172590000D03*
G04 #@! TD*
G04 #@! TO.C,SW6*
X140918000Y-168090000D03*
X140918000Y-172590000D03*
X134418000Y-168090000D03*
X134418000Y-172590000D03*
G04 #@! TD*
G04 #@! TO.C,SW7*
X153618000Y-168090000D03*
X153618000Y-172590000D03*
X147118000Y-168090000D03*
X147118000Y-172590000D03*
G04 #@! TD*
G04 #@! TO.C,SW8*
X166318000Y-168090000D03*
X166318000Y-172590000D03*
X159818000Y-168090000D03*
X159818000Y-172590000D03*
G04 #@! TD*
G04 #@! TO.C,SW9*
X128218000Y-185235000D03*
X128218000Y-189735000D03*
X121718000Y-185235000D03*
X121718000Y-189735000D03*
G04 #@! TD*
G04 #@! TO.C,SW10*
X140918000Y-185235000D03*
X140918000Y-189735000D03*
X134418000Y-185235000D03*
X134418000Y-189735000D03*
G04 #@! TD*
G04 #@! TO.C,SW11*
X153618000Y-185235000D03*
X153618000Y-189735000D03*
X147118000Y-185235000D03*
X147118000Y-189735000D03*
G04 #@! TD*
G04 #@! TO.C,SW12*
X166318000Y-185235000D03*
X166318000Y-189735000D03*
X159818000Y-185235000D03*
X159818000Y-189735000D03*
G04 #@! TD*
G04 #@! TO.C,SW13*
X128218000Y-202380000D03*
X128218000Y-206880000D03*
X121718000Y-202380000D03*
X121718000Y-206880000D03*
G04 #@! TD*
G04 #@! TO.C,SW14*
X140918000Y-202380000D03*
X140918000Y-206880000D03*
X134418000Y-202380000D03*
X134418000Y-206880000D03*
G04 #@! TD*
G04 #@! TO.C,SW15*
X153618000Y-202380000D03*
X153618000Y-206880000D03*
X147118000Y-202380000D03*
X147118000Y-206880000D03*
G04 #@! TD*
G04 #@! TO.C,SW16*
X166318000Y-202380000D03*
X166318000Y-206880000D03*
X159818000Y-202380000D03*
X159818000Y-206880000D03*
G04 #@! TD*
G04 #@! TO.C,SW17*
X183463000Y-150945000D03*
X183463000Y-155445000D03*
X176963000Y-150945000D03*
X176963000Y-155445000D03*
G04 #@! TD*
G04 #@! TO.C,SW18*
X183463000Y-168090000D03*
X183463000Y-172590000D03*
X176963000Y-168090000D03*
X176963000Y-172590000D03*
G04 #@! TD*
G04 #@! TO.C,SW19*
X183463000Y-185235000D03*
X183463000Y-189735000D03*
X176963000Y-185235000D03*
X176963000Y-189735000D03*
G04 #@! TD*
G04 #@! TO.C,SW20*
X183463000Y-202380000D03*
X183463000Y-206880000D03*
X176963000Y-202380000D03*
X176963000Y-206880000D03*
G04 #@! TD*
G04 #@! TO.C,SW21*
X196798000Y-150945000D03*
X196798000Y-155445000D03*
X190298000Y-150945000D03*
X190298000Y-155445000D03*
G04 #@! TD*
G04 #@! TO.C,SW22*
X196798000Y-168090000D03*
X196798000Y-172590000D03*
X190298000Y-168090000D03*
X190298000Y-172590000D03*
G04 #@! TD*
G04 #@! TO.C,SW23*
X196798000Y-185235000D03*
X196798000Y-189735000D03*
X190298000Y-185235000D03*
X190298000Y-189735000D03*
G04 #@! TD*
G04 #@! TO.C,SW24*
X196798000Y-202380000D03*
X196798000Y-206880000D03*
X190298000Y-202380000D03*
X190298000Y-206880000D03*
G04 #@! TD*
G04 #@! TO.C,SW25*
X172568000Y-100584000D03*
X172568000Y-105084000D03*
X166068000Y-100584000D03*
X166068000Y-105084000D03*
G04 #@! TD*
D19*
G04 #@! TO.C,SW26*
X166878000Y-86741000D03*
D18*
X169378000Y-86741000D03*
X171878000Y-86741000D03*
D20*
X163778000Y-79241000D03*
X174978000Y-79241000D03*
D18*
X166878000Y-72241000D03*
X171878000Y-72241000D03*
G04 #@! TD*
D19*
G04 #@! TO.C,SW27*
X166818000Y-66675000D03*
D18*
X169318000Y-66675000D03*
X171818000Y-66675000D03*
D20*
X163718000Y-59175000D03*
X174918000Y-59175000D03*
D18*
X166818000Y-52175000D03*
X171818000Y-52175000D03*
G04 #@! TD*
D21*
G04 #@! TO.C,RV1*
X115528000Y-139080000D03*
X118028000Y-139080000D03*
X120528000Y-139080000D03*
D22*
X113628000Y-132080000D03*
X122428000Y-132080000D03*
G04 #@! TD*
D21*
G04 #@! TO.C,RV2*
X131656000Y-139065000D03*
X134156000Y-139065000D03*
X136656000Y-139065000D03*
D22*
X129756000Y-132065000D03*
X138556000Y-132065000D03*
G04 #@! TD*
D21*
G04 #@! TO.C,RV3*
X147784000Y-139065000D03*
X150284000Y-139065000D03*
X152784000Y-139065000D03*
D22*
X145884000Y-132065000D03*
X154684000Y-132065000D03*
G04 #@! TD*
D21*
G04 #@! TO.C,RV4*
X163912000Y-139065000D03*
X166412000Y-139065000D03*
X168912000Y-139065000D03*
D22*
X162012000Y-132065000D03*
X170812000Y-132065000D03*
G04 #@! TD*
D21*
G04 #@! TO.C,RV5*
X180040000Y-139065000D03*
X182540000Y-139065000D03*
X185040000Y-139065000D03*
D22*
X178140000Y-132065000D03*
X186940000Y-132065000D03*
G04 #@! TD*
D21*
G04 #@! TO.C,RV6*
X196168000Y-139065000D03*
X198668000Y-139065000D03*
X201168000Y-139065000D03*
D22*
X194268000Y-132065000D03*
X203068000Y-132065000D03*
G04 #@! TD*
D11*
G04 #@! TO.C,J1*
X112903000Y-118745000D03*
X112903000Y-116205000D03*
X112903000Y-113665000D03*
X112903000Y-111125000D03*
X112903000Y-108585000D03*
X112903000Y-106045000D03*
X112903000Y-103505000D03*
X112903000Y-100965000D03*
X112903000Y-98425000D03*
X112903000Y-95885000D03*
X112903000Y-93345000D03*
X112903000Y-90805000D03*
X112903000Y-88265000D03*
X112903000Y-85725000D03*
X112903000Y-83185000D03*
D12*
X112903000Y-80645000D03*
G04 #@! TD*
G04 #@! TO.C,J2*
X112903000Y-200025000D03*
D11*
X112903000Y-202565000D03*
G04 #@! TD*
D12*
G04 #@! TO.C,J3*
X202438000Y-167005000D03*
D11*
X202438000Y-169545000D03*
X202438000Y-172085000D03*
X202438000Y-174625000D03*
X202438000Y-177165000D03*
X202438000Y-179705000D03*
X202438000Y-182245000D03*
X202438000Y-184785000D03*
X202438000Y-187325000D03*
X202438000Y-189865000D03*
X202438000Y-192405000D03*
X202438000Y-194945000D03*
X202438000Y-197485000D03*
X202438000Y-200025000D03*
X202438000Y-202565000D03*
X202438000Y-205105000D03*
G04 #@! TD*
D12*
G04 #@! TO.C,J4*
X112903000Y-174625000D03*
D11*
X112903000Y-177165000D03*
X112903000Y-179705000D03*
X112903000Y-182245000D03*
X112903000Y-184785000D03*
X112903000Y-187325000D03*
X112903000Y-189865000D03*
X112903000Y-192405000D03*
G04 #@! TD*
D12*
G04 #@! TO.C,J5*
X202438000Y-146685000D03*
D11*
X202438000Y-149225000D03*
X202438000Y-151765000D03*
X202438000Y-154305000D03*
X202438000Y-156845000D03*
X202438000Y-159385000D03*
G04 #@! TD*
D12*
G04 #@! TO.C,J6*
X117348000Y-118745000D03*
D11*
X119888000Y-118745000D03*
X122428000Y-118745000D03*
X124968000Y-118745000D03*
X127508000Y-118745000D03*
X130048000Y-118745000D03*
X132588000Y-118745000D03*
X135128000Y-118745000D03*
X137668000Y-118745000D03*
X140208000Y-118745000D03*
X142748000Y-118745000D03*
X145288000Y-118745000D03*
X147828000Y-118745000D03*
X150368000Y-118745000D03*
G04 #@! TD*
D17*
G04 #@! TO.C,R3*
X124396000Y-104966000D03*
D16*
X119316000Y-104966000D03*
G04 #@! TD*
G04 #@! TO.C,R4*
X119316000Y-108776000D03*
D17*
X124396000Y-108776000D03*
G04 #@! TD*
D23*
G04 #@! TO.C,C1*
G36*
X119717504Y-146191204D02*
X119741773Y-146194804D01*
X119765571Y-146200765D01*
X119788671Y-146209030D01*
X119810849Y-146219520D01*
X119831893Y-146232133D01*
X119851598Y-146246747D01*
X119869777Y-146263223D01*
X119886253Y-146281402D01*
X119900867Y-146301107D01*
X119913480Y-146322151D01*
X119923970Y-146344329D01*
X119932235Y-146367429D01*
X119938196Y-146391227D01*
X119941796Y-146415496D01*
X119943000Y-146440000D01*
X119943000Y-147190000D01*
X119941796Y-147214504D01*
X119938196Y-147238773D01*
X119932235Y-147262571D01*
X119923970Y-147285671D01*
X119913480Y-147307849D01*
X119900867Y-147328893D01*
X119886253Y-147348598D01*
X119869777Y-147366777D01*
X119851598Y-147383253D01*
X119831893Y-147397867D01*
X119810849Y-147410480D01*
X119788671Y-147420970D01*
X119765571Y-147429235D01*
X119741773Y-147435196D01*
X119717504Y-147438796D01*
X119693000Y-147440000D01*
X117543000Y-147440000D01*
X117518496Y-147438796D01*
X117494227Y-147435196D01*
X117470429Y-147429235D01*
X117447329Y-147420970D01*
X117425151Y-147410480D01*
X117404107Y-147397867D01*
X117384402Y-147383253D01*
X117366223Y-147366777D01*
X117349747Y-147348598D01*
X117335133Y-147328893D01*
X117322520Y-147307849D01*
X117312030Y-147285671D01*
X117303765Y-147262571D01*
X117297804Y-147238773D01*
X117294204Y-147214504D01*
X117293000Y-147190000D01*
X117293000Y-146440000D01*
X117294204Y-146415496D01*
X117297804Y-146391227D01*
X117303765Y-146367429D01*
X117312030Y-146344329D01*
X117322520Y-146322151D01*
X117335133Y-146301107D01*
X117349747Y-146281402D01*
X117366223Y-146263223D01*
X117384402Y-146246747D01*
X117404107Y-146232133D01*
X117425151Y-146219520D01*
X117447329Y-146209030D01*
X117470429Y-146200765D01*
X117494227Y-146194804D01*
X117518496Y-146191204D01*
X117543000Y-146190000D01*
X119693000Y-146190000D01*
X119717504Y-146191204D01*
X119717504Y-146191204D01*
G37*
D24*
X118618000Y-146815000D03*
D23*
G36*
X119717504Y-143391204D02*
X119741773Y-143394804D01*
X119765571Y-143400765D01*
X119788671Y-143409030D01*
X119810849Y-143419520D01*
X119831893Y-143432133D01*
X119851598Y-143446747D01*
X119869777Y-143463223D01*
X119886253Y-143481402D01*
X119900867Y-143501107D01*
X119913480Y-143522151D01*
X119923970Y-143544329D01*
X119932235Y-143567429D01*
X119938196Y-143591227D01*
X119941796Y-143615496D01*
X119943000Y-143640000D01*
X119943000Y-144390000D01*
X119941796Y-144414504D01*
X119938196Y-144438773D01*
X119932235Y-144462571D01*
X119923970Y-144485671D01*
X119913480Y-144507849D01*
X119900867Y-144528893D01*
X119886253Y-144548598D01*
X119869777Y-144566777D01*
X119851598Y-144583253D01*
X119831893Y-144597867D01*
X119810849Y-144610480D01*
X119788671Y-144620970D01*
X119765571Y-144629235D01*
X119741773Y-144635196D01*
X119717504Y-144638796D01*
X119693000Y-144640000D01*
X117543000Y-144640000D01*
X117518496Y-144638796D01*
X117494227Y-144635196D01*
X117470429Y-144629235D01*
X117447329Y-144620970D01*
X117425151Y-144610480D01*
X117404107Y-144597867D01*
X117384402Y-144583253D01*
X117366223Y-144566777D01*
X117349747Y-144548598D01*
X117335133Y-144528893D01*
X117322520Y-144507849D01*
X117312030Y-144485671D01*
X117303765Y-144462571D01*
X117297804Y-144438773D01*
X117294204Y-144414504D01*
X117293000Y-144390000D01*
X117293000Y-143640000D01*
X117294204Y-143615496D01*
X117297804Y-143591227D01*
X117303765Y-143567429D01*
X117312030Y-143544329D01*
X117322520Y-143522151D01*
X117335133Y-143501107D01*
X117349747Y-143481402D01*
X117366223Y-143463223D01*
X117384402Y-143446747D01*
X117404107Y-143432133D01*
X117425151Y-143419520D01*
X117447329Y-143409030D01*
X117470429Y-143400765D01*
X117494227Y-143394804D01*
X117518496Y-143391204D01*
X117543000Y-143390000D01*
X119693000Y-143390000D01*
X119717504Y-143391204D01*
X119717504Y-143391204D01*
G37*
D24*
X118618000Y-144015000D03*
G04 #@! TD*
D23*
G04 #@! TO.C,C2*
G36*
X132417504Y-146191204D02*
X132441773Y-146194804D01*
X132465571Y-146200765D01*
X132488671Y-146209030D01*
X132510849Y-146219520D01*
X132531893Y-146232133D01*
X132551598Y-146246747D01*
X132569777Y-146263223D01*
X132586253Y-146281402D01*
X132600867Y-146301107D01*
X132613480Y-146322151D01*
X132623970Y-146344329D01*
X132632235Y-146367429D01*
X132638196Y-146391227D01*
X132641796Y-146415496D01*
X132643000Y-146440000D01*
X132643000Y-147190000D01*
X132641796Y-147214504D01*
X132638196Y-147238773D01*
X132632235Y-147262571D01*
X132623970Y-147285671D01*
X132613480Y-147307849D01*
X132600867Y-147328893D01*
X132586253Y-147348598D01*
X132569777Y-147366777D01*
X132551598Y-147383253D01*
X132531893Y-147397867D01*
X132510849Y-147410480D01*
X132488671Y-147420970D01*
X132465571Y-147429235D01*
X132441773Y-147435196D01*
X132417504Y-147438796D01*
X132393000Y-147440000D01*
X130243000Y-147440000D01*
X130218496Y-147438796D01*
X130194227Y-147435196D01*
X130170429Y-147429235D01*
X130147329Y-147420970D01*
X130125151Y-147410480D01*
X130104107Y-147397867D01*
X130084402Y-147383253D01*
X130066223Y-147366777D01*
X130049747Y-147348598D01*
X130035133Y-147328893D01*
X130022520Y-147307849D01*
X130012030Y-147285671D01*
X130003765Y-147262571D01*
X129997804Y-147238773D01*
X129994204Y-147214504D01*
X129993000Y-147190000D01*
X129993000Y-146440000D01*
X129994204Y-146415496D01*
X129997804Y-146391227D01*
X130003765Y-146367429D01*
X130012030Y-146344329D01*
X130022520Y-146322151D01*
X130035133Y-146301107D01*
X130049747Y-146281402D01*
X130066223Y-146263223D01*
X130084402Y-146246747D01*
X130104107Y-146232133D01*
X130125151Y-146219520D01*
X130147329Y-146209030D01*
X130170429Y-146200765D01*
X130194227Y-146194804D01*
X130218496Y-146191204D01*
X130243000Y-146190000D01*
X132393000Y-146190000D01*
X132417504Y-146191204D01*
X132417504Y-146191204D01*
G37*
D24*
X131318000Y-146815000D03*
D23*
G36*
X132417504Y-143391204D02*
X132441773Y-143394804D01*
X132465571Y-143400765D01*
X132488671Y-143409030D01*
X132510849Y-143419520D01*
X132531893Y-143432133D01*
X132551598Y-143446747D01*
X132569777Y-143463223D01*
X132586253Y-143481402D01*
X132600867Y-143501107D01*
X132613480Y-143522151D01*
X132623970Y-143544329D01*
X132632235Y-143567429D01*
X132638196Y-143591227D01*
X132641796Y-143615496D01*
X132643000Y-143640000D01*
X132643000Y-144390000D01*
X132641796Y-144414504D01*
X132638196Y-144438773D01*
X132632235Y-144462571D01*
X132623970Y-144485671D01*
X132613480Y-144507849D01*
X132600867Y-144528893D01*
X132586253Y-144548598D01*
X132569777Y-144566777D01*
X132551598Y-144583253D01*
X132531893Y-144597867D01*
X132510849Y-144610480D01*
X132488671Y-144620970D01*
X132465571Y-144629235D01*
X132441773Y-144635196D01*
X132417504Y-144638796D01*
X132393000Y-144640000D01*
X130243000Y-144640000D01*
X130218496Y-144638796D01*
X130194227Y-144635196D01*
X130170429Y-144629235D01*
X130147329Y-144620970D01*
X130125151Y-144610480D01*
X130104107Y-144597867D01*
X130084402Y-144583253D01*
X130066223Y-144566777D01*
X130049747Y-144548598D01*
X130035133Y-144528893D01*
X130022520Y-144507849D01*
X130012030Y-144485671D01*
X130003765Y-144462571D01*
X129997804Y-144438773D01*
X129994204Y-144414504D01*
X129993000Y-144390000D01*
X129993000Y-143640000D01*
X129994204Y-143615496D01*
X129997804Y-143591227D01*
X130003765Y-143567429D01*
X130012030Y-143544329D01*
X130022520Y-143522151D01*
X130035133Y-143501107D01*
X130049747Y-143481402D01*
X130066223Y-143463223D01*
X130084402Y-143446747D01*
X130104107Y-143432133D01*
X130125151Y-143419520D01*
X130147329Y-143409030D01*
X130170429Y-143400765D01*
X130194227Y-143394804D01*
X130218496Y-143391204D01*
X130243000Y-143390000D01*
X132393000Y-143390000D01*
X132417504Y-143391204D01*
X132417504Y-143391204D01*
G37*
D24*
X131318000Y-144015000D03*
G04 #@! TD*
D23*
G04 #@! TO.C,C3*
G36*
X145117504Y-146191204D02*
X145141773Y-146194804D01*
X145165571Y-146200765D01*
X145188671Y-146209030D01*
X145210849Y-146219520D01*
X145231893Y-146232133D01*
X145251598Y-146246747D01*
X145269777Y-146263223D01*
X145286253Y-146281402D01*
X145300867Y-146301107D01*
X145313480Y-146322151D01*
X145323970Y-146344329D01*
X145332235Y-146367429D01*
X145338196Y-146391227D01*
X145341796Y-146415496D01*
X145343000Y-146440000D01*
X145343000Y-147190000D01*
X145341796Y-147214504D01*
X145338196Y-147238773D01*
X145332235Y-147262571D01*
X145323970Y-147285671D01*
X145313480Y-147307849D01*
X145300867Y-147328893D01*
X145286253Y-147348598D01*
X145269777Y-147366777D01*
X145251598Y-147383253D01*
X145231893Y-147397867D01*
X145210849Y-147410480D01*
X145188671Y-147420970D01*
X145165571Y-147429235D01*
X145141773Y-147435196D01*
X145117504Y-147438796D01*
X145093000Y-147440000D01*
X142943000Y-147440000D01*
X142918496Y-147438796D01*
X142894227Y-147435196D01*
X142870429Y-147429235D01*
X142847329Y-147420970D01*
X142825151Y-147410480D01*
X142804107Y-147397867D01*
X142784402Y-147383253D01*
X142766223Y-147366777D01*
X142749747Y-147348598D01*
X142735133Y-147328893D01*
X142722520Y-147307849D01*
X142712030Y-147285671D01*
X142703765Y-147262571D01*
X142697804Y-147238773D01*
X142694204Y-147214504D01*
X142693000Y-147190000D01*
X142693000Y-146440000D01*
X142694204Y-146415496D01*
X142697804Y-146391227D01*
X142703765Y-146367429D01*
X142712030Y-146344329D01*
X142722520Y-146322151D01*
X142735133Y-146301107D01*
X142749747Y-146281402D01*
X142766223Y-146263223D01*
X142784402Y-146246747D01*
X142804107Y-146232133D01*
X142825151Y-146219520D01*
X142847329Y-146209030D01*
X142870429Y-146200765D01*
X142894227Y-146194804D01*
X142918496Y-146191204D01*
X142943000Y-146190000D01*
X145093000Y-146190000D01*
X145117504Y-146191204D01*
X145117504Y-146191204D01*
G37*
D24*
X144018000Y-146815000D03*
D23*
G36*
X145117504Y-143391204D02*
X145141773Y-143394804D01*
X145165571Y-143400765D01*
X145188671Y-143409030D01*
X145210849Y-143419520D01*
X145231893Y-143432133D01*
X145251598Y-143446747D01*
X145269777Y-143463223D01*
X145286253Y-143481402D01*
X145300867Y-143501107D01*
X145313480Y-143522151D01*
X145323970Y-143544329D01*
X145332235Y-143567429D01*
X145338196Y-143591227D01*
X145341796Y-143615496D01*
X145343000Y-143640000D01*
X145343000Y-144390000D01*
X145341796Y-144414504D01*
X145338196Y-144438773D01*
X145332235Y-144462571D01*
X145323970Y-144485671D01*
X145313480Y-144507849D01*
X145300867Y-144528893D01*
X145286253Y-144548598D01*
X145269777Y-144566777D01*
X145251598Y-144583253D01*
X145231893Y-144597867D01*
X145210849Y-144610480D01*
X145188671Y-144620970D01*
X145165571Y-144629235D01*
X145141773Y-144635196D01*
X145117504Y-144638796D01*
X145093000Y-144640000D01*
X142943000Y-144640000D01*
X142918496Y-144638796D01*
X142894227Y-144635196D01*
X142870429Y-144629235D01*
X142847329Y-144620970D01*
X142825151Y-144610480D01*
X142804107Y-144597867D01*
X142784402Y-144583253D01*
X142766223Y-144566777D01*
X142749747Y-144548598D01*
X142735133Y-144528893D01*
X142722520Y-144507849D01*
X142712030Y-144485671D01*
X142703765Y-144462571D01*
X142697804Y-144438773D01*
X142694204Y-144414504D01*
X142693000Y-144390000D01*
X142693000Y-143640000D01*
X142694204Y-143615496D01*
X142697804Y-143591227D01*
X142703765Y-143567429D01*
X142712030Y-143544329D01*
X142722520Y-143522151D01*
X142735133Y-143501107D01*
X142749747Y-143481402D01*
X142766223Y-143463223D01*
X142784402Y-143446747D01*
X142804107Y-143432133D01*
X142825151Y-143419520D01*
X142847329Y-143409030D01*
X142870429Y-143400765D01*
X142894227Y-143394804D01*
X142918496Y-143391204D01*
X142943000Y-143390000D01*
X145093000Y-143390000D01*
X145117504Y-143391204D01*
X145117504Y-143391204D01*
G37*
D24*
X144018000Y-144015000D03*
G04 #@! TD*
D23*
G04 #@! TO.C,C4*
G36*
X157817504Y-143391204D02*
X157841773Y-143394804D01*
X157865571Y-143400765D01*
X157888671Y-143409030D01*
X157910849Y-143419520D01*
X157931893Y-143432133D01*
X157951598Y-143446747D01*
X157969777Y-143463223D01*
X157986253Y-143481402D01*
X158000867Y-143501107D01*
X158013480Y-143522151D01*
X158023970Y-143544329D01*
X158032235Y-143567429D01*
X158038196Y-143591227D01*
X158041796Y-143615496D01*
X158043000Y-143640000D01*
X158043000Y-144390000D01*
X158041796Y-144414504D01*
X158038196Y-144438773D01*
X158032235Y-144462571D01*
X158023970Y-144485671D01*
X158013480Y-144507849D01*
X158000867Y-144528893D01*
X157986253Y-144548598D01*
X157969777Y-144566777D01*
X157951598Y-144583253D01*
X157931893Y-144597867D01*
X157910849Y-144610480D01*
X157888671Y-144620970D01*
X157865571Y-144629235D01*
X157841773Y-144635196D01*
X157817504Y-144638796D01*
X157793000Y-144640000D01*
X155643000Y-144640000D01*
X155618496Y-144638796D01*
X155594227Y-144635196D01*
X155570429Y-144629235D01*
X155547329Y-144620970D01*
X155525151Y-144610480D01*
X155504107Y-144597867D01*
X155484402Y-144583253D01*
X155466223Y-144566777D01*
X155449747Y-144548598D01*
X155435133Y-144528893D01*
X155422520Y-144507849D01*
X155412030Y-144485671D01*
X155403765Y-144462571D01*
X155397804Y-144438773D01*
X155394204Y-144414504D01*
X155393000Y-144390000D01*
X155393000Y-143640000D01*
X155394204Y-143615496D01*
X155397804Y-143591227D01*
X155403765Y-143567429D01*
X155412030Y-143544329D01*
X155422520Y-143522151D01*
X155435133Y-143501107D01*
X155449747Y-143481402D01*
X155466223Y-143463223D01*
X155484402Y-143446747D01*
X155504107Y-143432133D01*
X155525151Y-143419520D01*
X155547329Y-143409030D01*
X155570429Y-143400765D01*
X155594227Y-143394804D01*
X155618496Y-143391204D01*
X155643000Y-143390000D01*
X157793000Y-143390000D01*
X157817504Y-143391204D01*
X157817504Y-143391204D01*
G37*
D24*
X156718000Y-144015000D03*
D23*
G36*
X157817504Y-146191204D02*
X157841773Y-146194804D01*
X157865571Y-146200765D01*
X157888671Y-146209030D01*
X157910849Y-146219520D01*
X157931893Y-146232133D01*
X157951598Y-146246747D01*
X157969777Y-146263223D01*
X157986253Y-146281402D01*
X158000867Y-146301107D01*
X158013480Y-146322151D01*
X158023970Y-146344329D01*
X158032235Y-146367429D01*
X158038196Y-146391227D01*
X158041796Y-146415496D01*
X158043000Y-146440000D01*
X158043000Y-147190000D01*
X158041796Y-147214504D01*
X158038196Y-147238773D01*
X158032235Y-147262571D01*
X158023970Y-147285671D01*
X158013480Y-147307849D01*
X158000867Y-147328893D01*
X157986253Y-147348598D01*
X157969777Y-147366777D01*
X157951598Y-147383253D01*
X157931893Y-147397867D01*
X157910849Y-147410480D01*
X157888671Y-147420970D01*
X157865571Y-147429235D01*
X157841773Y-147435196D01*
X157817504Y-147438796D01*
X157793000Y-147440000D01*
X155643000Y-147440000D01*
X155618496Y-147438796D01*
X155594227Y-147435196D01*
X155570429Y-147429235D01*
X155547329Y-147420970D01*
X155525151Y-147410480D01*
X155504107Y-147397867D01*
X155484402Y-147383253D01*
X155466223Y-147366777D01*
X155449747Y-147348598D01*
X155435133Y-147328893D01*
X155422520Y-147307849D01*
X155412030Y-147285671D01*
X155403765Y-147262571D01*
X155397804Y-147238773D01*
X155394204Y-147214504D01*
X155393000Y-147190000D01*
X155393000Y-146440000D01*
X155394204Y-146415496D01*
X155397804Y-146391227D01*
X155403765Y-146367429D01*
X155412030Y-146344329D01*
X155422520Y-146322151D01*
X155435133Y-146301107D01*
X155449747Y-146281402D01*
X155466223Y-146263223D01*
X155484402Y-146246747D01*
X155504107Y-146232133D01*
X155525151Y-146219520D01*
X155547329Y-146209030D01*
X155570429Y-146200765D01*
X155594227Y-146194804D01*
X155618496Y-146191204D01*
X155643000Y-146190000D01*
X157793000Y-146190000D01*
X157817504Y-146191204D01*
X157817504Y-146191204D01*
G37*
D24*
X156718000Y-146815000D03*
G04 #@! TD*
D23*
G04 #@! TO.C,C5*
G36*
X119717504Y-163336204D02*
X119741773Y-163339804D01*
X119765571Y-163345765D01*
X119788671Y-163354030D01*
X119810849Y-163364520D01*
X119831893Y-163377133D01*
X119851598Y-163391747D01*
X119869777Y-163408223D01*
X119886253Y-163426402D01*
X119900867Y-163446107D01*
X119913480Y-163467151D01*
X119923970Y-163489329D01*
X119932235Y-163512429D01*
X119938196Y-163536227D01*
X119941796Y-163560496D01*
X119943000Y-163585000D01*
X119943000Y-164335000D01*
X119941796Y-164359504D01*
X119938196Y-164383773D01*
X119932235Y-164407571D01*
X119923970Y-164430671D01*
X119913480Y-164452849D01*
X119900867Y-164473893D01*
X119886253Y-164493598D01*
X119869777Y-164511777D01*
X119851598Y-164528253D01*
X119831893Y-164542867D01*
X119810849Y-164555480D01*
X119788671Y-164565970D01*
X119765571Y-164574235D01*
X119741773Y-164580196D01*
X119717504Y-164583796D01*
X119693000Y-164585000D01*
X117543000Y-164585000D01*
X117518496Y-164583796D01*
X117494227Y-164580196D01*
X117470429Y-164574235D01*
X117447329Y-164565970D01*
X117425151Y-164555480D01*
X117404107Y-164542867D01*
X117384402Y-164528253D01*
X117366223Y-164511777D01*
X117349747Y-164493598D01*
X117335133Y-164473893D01*
X117322520Y-164452849D01*
X117312030Y-164430671D01*
X117303765Y-164407571D01*
X117297804Y-164383773D01*
X117294204Y-164359504D01*
X117293000Y-164335000D01*
X117293000Y-163585000D01*
X117294204Y-163560496D01*
X117297804Y-163536227D01*
X117303765Y-163512429D01*
X117312030Y-163489329D01*
X117322520Y-163467151D01*
X117335133Y-163446107D01*
X117349747Y-163426402D01*
X117366223Y-163408223D01*
X117384402Y-163391747D01*
X117404107Y-163377133D01*
X117425151Y-163364520D01*
X117447329Y-163354030D01*
X117470429Y-163345765D01*
X117494227Y-163339804D01*
X117518496Y-163336204D01*
X117543000Y-163335000D01*
X119693000Y-163335000D01*
X119717504Y-163336204D01*
X119717504Y-163336204D01*
G37*
D24*
X118618000Y-163960000D03*
D23*
G36*
X119717504Y-160536204D02*
X119741773Y-160539804D01*
X119765571Y-160545765D01*
X119788671Y-160554030D01*
X119810849Y-160564520D01*
X119831893Y-160577133D01*
X119851598Y-160591747D01*
X119869777Y-160608223D01*
X119886253Y-160626402D01*
X119900867Y-160646107D01*
X119913480Y-160667151D01*
X119923970Y-160689329D01*
X119932235Y-160712429D01*
X119938196Y-160736227D01*
X119941796Y-160760496D01*
X119943000Y-160785000D01*
X119943000Y-161535000D01*
X119941796Y-161559504D01*
X119938196Y-161583773D01*
X119932235Y-161607571D01*
X119923970Y-161630671D01*
X119913480Y-161652849D01*
X119900867Y-161673893D01*
X119886253Y-161693598D01*
X119869777Y-161711777D01*
X119851598Y-161728253D01*
X119831893Y-161742867D01*
X119810849Y-161755480D01*
X119788671Y-161765970D01*
X119765571Y-161774235D01*
X119741773Y-161780196D01*
X119717504Y-161783796D01*
X119693000Y-161785000D01*
X117543000Y-161785000D01*
X117518496Y-161783796D01*
X117494227Y-161780196D01*
X117470429Y-161774235D01*
X117447329Y-161765970D01*
X117425151Y-161755480D01*
X117404107Y-161742867D01*
X117384402Y-161728253D01*
X117366223Y-161711777D01*
X117349747Y-161693598D01*
X117335133Y-161673893D01*
X117322520Y-161652849D01*
X117312030Y-161630671D01*
X117303765Y-161607571D01*
X117297804Y-161583773D01*
X117294204Y-161559504D01*
X117293000Y-161535000D01*
X117293000Y-160785000D01*
X117294204Y-160760496D01*
X117297804Y-160736227D01*
X117303765Y-160712429D01*
X117312030Y-160689329D01*
X117322520Y-160667151D01*
X117335133Y-160646107D01*
X117349747Y-160626402D01*
X117366223Y-160608223D01*
X117384402Y-160591747D01*
X117404107Y-160577133D01*
X117425151Y-160564520D01*
X117447329Y-160554030D01*
X117470429Y-160545765D01*
X117494227Y-160539804D01*
X117518496Y-160536204D01*
X117543000Y-160535000D01*
X119693000Y-160535000D01*
X119717504Y-160536204D01*
X119717504Y-160536204D01*
G37*
D24*
X118618000Y-161160000D03*
G04 #@! TD*
D23*
G04 #@! TO.C,C6*
G36*
X132417504Y-163336204D02*
X132441773Y-163339804D01*
X132465571Y-163345765D01*
X132488671Y-163354030D01*
X132510849Y-163364520D01*
X132531893Y-163377133D01*
X132551598Y-163391747D01*
X132569777Y-163408223D01*
X132586253Y-163426402D01*
X132600867Y-163446107D01*
X132613480Y-163467151D01*
X132623970Y-163489329D01*
X132632235Y-163512429D01*
X132638196Y-163536227D01*
X132641796Y-163560496D01*
X132643000Y-163585000D01*
X132643000Y-164335000D01*
X132641796Y-164359504D01*
X132638196Y-164383773D01*
X132632235Y-164407571D01*
X132623970Y-164430671D01*
X132613480Y-164452849D01*
X132600867Y-164473893D01*
X132586253Y-164493598D01*
X132569777Y-164511777D01*
X132551598Y-164528253D01*
X132531893Y-164542867D01*
X132510849Y-164555480D01*
X132488671Y-164565970D01*
X132465571Y-164574235D01*
X132441773Y-164580196D01*
X132417504Y-164583796D01*
X132393000Y-164585000D01*
X130243000Y-164585000D01*
X130218496Y-164583796D01*
X130194227Y-164580196D01*
X130170429Y-164574235D01*
X130147329Y-164565970D01*
X130125151Y-164555480D01*
X130104107Y-164542867D01*
X130084402Y-164528253D01*
X130066223Y-164511777D01*
X130049747Y-164493598D01*
X130035133Y-164473893D01*
X130022520Y-164452849D01*
X130012030Y-164430671D01*
X130003765Y-164407571D01*
X129997804Y-164383773D01*
X129994204Y-164359504D01*
X129993000Y-164335000D01*
X129993000Y-163585000D01*
X129994204Y-163560496D01*
X129997804Y-163536227D01*
X130003765Y-163512429D01*
X130012030Y-163489329D01*
X130022520Y-163467151D01*
X130035133Y-163446107D01*
X130049747Y-163426402D01*
X130066223Y-163408223D01*
X130084402Y-163391747D01*
X130104107Y-163377133D01*
X130125151Y-163364520D01*
X130147329Y-163354030D01*
X130170429Y-163345765D01*
X130194227Y-163339804D01*
X130218496Y-163336204D01*
X130243000Y-163335000D01*
X132393000Y-163335000D01*
X132417504Y-163336204D01*
X132417504Y-163336204D01*
G37*
D24*
X131318000Y-163960000D03*
D23*
G36*
X132417504Y-160536204D02*
X132441773Y-160539804D01*
X132465571Y-160545765D01*
X132488671Y-160554030D01*
X132510849Y-160564520D01*
X132531893Y-160577133D01*
X132551598Y-160591747D01*
X132569777Y-160608223D01*
X132586253Y-160626402D01*
X132600867Y-160646107D01*
X132613480Y-160667151D01*
X132623970Y-160689329D01*
X132632235Y-160712429D01*
X132638196Y-160736227D01*
X132641796Y-160760496D01*
X132643000Y-160785000D01*
X132643000Y-161535000D01*
X132641796Y-161559504D01*
X132638196Y-161583773D01*
X132632235Y-161607571D01*
X132623970Y-161630671D01*
X132613480Y-161652849D01*
X132600867Y-161673893D01*
X132586253Y-161693598D01*
X132569777Y-161711777D01*
X132551598Y-161728253D01*
X132531893Y-161742867D01*
X132510849Y-161755480D01*
X132488671Y-161765970D01*
X132465571Y-161774235D01*
X132441773Y-161780196D01*
X132417504Y-161783796D01*
X132393000Y-161785000D01*
X130243000Y-161785000D01*
X130218496Y-161783796D01*
X130194227Y-161780196D01*
X130170429Y-161774235D01*
X130147329Y-161765970D01*
X130125151Y-161755480D01*
X130104107Y-161742867D01*
X130084402Y-161728253D01*
X130066223Y-161711777D01*
X130049747Y-161693598D01*
X130035133Y-161673893D01*
X130022520Y-161652849D01*
X130012030Y-161630671D01*
X130003765Y-161607571D01*
X129997804Y-161583773D01*
X129994204Y-161559504D01*
X129993000Y-161535000D01*
X129993000Y-160785000D01*
X129994204Y-160760496D01*
X129997804Y-160736227D01*
X130003765Y-160712429D01*
X130012030Y-160689329D01*
X130022520Y-160667151D01*
X130035133Y-160646107D01*
X130049747Y-160626402D01*
X130066223Y-160608223D01*
X130084402Y-160591747D01*
X130104107Y-160577133D01*
X130125151Y-160564520D01*
X130147329Y-160554030D01*
X130170429Y-160545765D01*
X130194227Y-160539804D01*
X130218496Y-160536204D01*
X130243000Y-160535000D01*
X132393000Y-160535000D01*
X132417504Y-160536204D01*
X132417504Y-160536204D01*
G37*
D24*
X131318000Y-161160000D03*
G04 #@! TD*
D23*
G04 #@! TO.C,C7*
G36*
X145117504Y-160536204D02*
X145141773Y-160539804D01*
X145165571Y-160545765D01*
X145188671Y-160554030D01*
X145210849Y-160564520D01*
X145231893Y-160577133D01*
X145251598Y-160591747D01*
X145269777Y-160608223D01*
X145286253Y-160626402D01*
X145300867Y-160646107D01*
X145313480Y-160667151D01*
X145323970Y-160689329D01*
X145332235Y-160712429D01*
X145338196Y-160736227D01*
X145341796Y-160760496D01*
X145343000Y-160785000D01*
X145343000Y-161535000D01*
X145341796Y-161559504D01*
X145338196Y-161583773D01*
X145332235Y-161607571D01*
X145323970Y-161630671D01*
X145313480Y-161652849D01*
X145300867Y-161673893D01*
X145286253Y-161693598D01*
X145269777Y-161711777D01*
X145251598Y-161728253D01*
X145231893Y-161742867D01*
X145210849Y-161755480D01*
X145188671Y-161765970D01*
X145165571Y-161774235D01*
X145141773Y-161780196D01*
X145117504Y-161783796D01*
X145093000Y-161785000D01*
X142943000Y-161785000D01*
X142918496Y-161783796D01*
X142894227Y-161780196D01*
X142870429Y-161774235D01*
X142847329Y-161765970D01*
X142825151Y-161755480D01*
X142804107Y-161742867D01*
X142784402Y-161728253D01*
X142766223Y-161711777D01*
X142749747Y-161693598D01*
X142735133Y-161673893D01*
X142722520Y-161652849D01*
X142712030Y-161630671D01*
X142703765Y-161607571D01*
X142697804Y-161583773D01*
X142694204Y-161559504D01*
X142693000Y-161535000D01*
X142693000Y-160785000D01*
X142694204Y-160760496D01*
X142697804Y-160736227D01*
X142703765Y-160712429D01*
X142712030Y-160689329D01*
X142722520Y-160667151D01*
X142735133Y-160646107D01*
X142749747Y-160626402D01*
X142766223Y-160608223D01*
X142784402Y-160591747D01*
X142804107Y-160577133D01*
X142825151Y-160564520D01*
X142847329Y-160554030D01*
X142870429Y-160545765D01*
X142894227Y-160539804D01*
X142918496Y-160536204D01*
X142943000Y-160535000D01*
X145093000Y-160535000D01*
X145117504Y-160536204D01*
X145117504Y-160536204D01*
G37*
D24*
X144018000Y-161160000D03*
D23*
G36*
X145117504Y-163336204D02*
X145141773Y-163339804D01*
X145165571Y-163345765D01*
X145188671Y-163354030D01*
X145210849Y-163364520D01*
X145231893Y-163377133D01*
X145251598Y-163391747D01*
X145269777Y-163408223D01*
X145286253Y-163426402D01*
X145300867Y-163446107D01*
X145313480Y-163467151D01*
X145323970Y-163489329D01*
X145332235Y-163512429D01*
X145338196Y-163536227D01*
X145341796Y-163560496D01*
X145343000Y-163585000D01*
X145343000Y-164335000D01*
X145341796Y-164359504D01*
X145338196Y-164383773D01*
X145332235Y-164407571D01*
X145323970Y-164430671D01*
X145313480Y-164452849D01*
X145300867Y-164473893D01*
X145286253Y-164493598D01*
X145269777Y-164511777D01*
X145251598Y-164528253D01*
X145231893Y-164542867D01*
X145210849Y-164555480D01*
X145188671Y-164565970D01*
X145165571Y-164574235D01*
X145141773Y-164580196D01*
X145117504Y-164583796D01*
X145093000Y-164585000D01*
X142943000Y-164585000D01*
X142918496Y-164583796D01*
X142894227Y-164580196D01*
X142870429Y-164574235D01*
X142847329Y-164565970D01*
X142825151Y-164555480D01*
X142804107Y-164542867D01*
X142784402Y-164528253D01*
X142766223Y-164511777D01*
X142749747Y-164493598D01*
X142735133Y-164473893D01*
X142722520Y-164452849D01*
X142712030Y-164430671D01*
X142703765Y-164407571D01*
X142697804Y-164383773D01*
X142694204Y-164359504D01*
X142693000Y-164335000D01*
X142693000Y-163585000D01*
X142694204Y-163560496D01*
X142697804Y-163536227D01*
X142703765Y-163512429D01*
X142712030Y-163489329D01*
X142722520Y-163467151D01*
X142735133Y-163446107D01*
X142749747Y-163426402D01*
X142766223Y-163408223D01*
X142784402Y-163391747D01*
X142804107Y-163377133D01*
X142825151Y-163364520D01*
X142847329Y-163354030D01*
X142870429Y-163345765D01*
X142894227Y-163339804D01*
X142918496Y-163336204D01*
X142943000Y-163335000D01*
X145093000Y-163335000D01*
X145117504Y-163336204D01*
X145117504Y-163336204D01*
G37*
D24*
X144018000Y-163960000D03*
G04 #@! TD*
D23*
G04 #@! TO.C,C8*
G36*
X157817504Y-160536204D02*
X157841773Y-160539804D01*
X157865571Y-160545765D01*
X157888671Y-160554030D01*
X157910849Y-160564520D01*
X157931893Y-160577133D01*
X157951598Y-160591747D01*
X157969777Y-160608223D01*
X157986253Y-160626402D01*
X158000867Y-160646107D01*
X158013480Y-160667151D01*
X158023970Y-160689329D01*
X158032235Y-160712429D01*
X158038196Y-160736227D01*
X158041796Y-160760496D01*
X158043000Y-160785000D01*
X158043000Y-161535000D01*
X158041796Y-161559504D01*
X158038196Y-161583773D01*
X158032235Y-161607571D01*
X158023970Y-161630671D01*
X158013480Y-161652849D01*
X158000867Y-161673893D01*
X157986253Y-161693598D01*
X157969777Y-161711777D01*
X157951598Y-161728253D01*
X157931893Y-161742867D01*
X157910849Y-161755480D01*
X157888671Y-161765970D01*
X157865571Y-161774235D01*
X157841773Y-161780196D01*
X157817504Y-161783796D01*
X157793000Y-161785000D01*
X155643000Y-161785000D01*
X155618496Y-161783796D01*
X155594227Y-161780196D01*
X155570429Y-161774235D01*
X155547329Y-161765970D01*
X155525151Y-161755480D01*
X155504107Y-161742867D01*
X155484402Y-161728253D01*
X155466223Y-161711777D01*
X155449747Y-161693598D01*
X155435133Y-161673893D01*
X155422520Y-161652849D01*
X155412030Y-161630671D01*
X155403765Y-161607571D01*
X155397804Y-161583773D01*
X155394204Y-161559504D01*
X155393000Y-161535000D01*
X155393000Y-160785000D01*
X155394204Y-160760496D01*
X155397804Y-160736227D01*
X155403765Y-160712429D01*
X155412030Y-160689329D01*
X155422520Y-160667151D01*
X155435133Y-160646107D01*
X155449747Y-160626402D01*
X155466223Y-160608223D01*
X155484402Y-160591747D01*
X155504107Y-160577133D01*
X155525151Y-160564520D01*
X155547329Y-160554030D01*
X155570429Y-160545765D01*
X155594227Y-160539804D01*
X155618496Y-160536204D01*
X155643000Y-160535000D01*
X157793000Y-160535000D01*
X157817504Y-160536204D01*
X157817504Y-160536204D01*
G37*
D24*
X156718000Y-161160000D03*
D23*
G36*
X157817504Y-163336204D02*
X157841773Y-163339804D01*
X157865571Y-163345765D01*
X157888671Y-163354030D01*
X157910849Y-163364520D01*
X157931893Y-163377133D01*
X157951598Y-163391747D01*
X157969777Y-163408223D01*
X157986253Y-163426402D01*
X158000867Y-163446107D01*
X158013480Y-163467151D01*
X158023970Y-163489329D01*
X158032235Y-163512429D01*
X158038196Y-163536227D01*
X158041796Y-163560496D01*
X158043000Y-163585000D01*
X158043000Y-164335000D01*
X158041796Y-164359504D01*
X158038196Y-164383773D01*
X158032235Y-164407571D01*
X158023970Y-164430671D01*
X158013480Y-164452849D01*
X158000867Y-164473893D01*
X157986253Y-164493598D01*
X157969777Y-164511777D01*
X157951598Y-164528253D01*
X157931893Y-164542867D01*
X157910849Y-164555480D01*
X157888671Y-164565970D01*
X157865571Y-164574235D01*
X157841773Y-164580196D01*
X157817504Y-164583796D01*
X157793000Y-164585000D01*
X155643000Y-164585000D01*
X155618496Y-164583796D01*
X155594227Y-164580196D01*
X155570429Y-164574235D01*
X155547329Y-164565970D01*
X155525151Y-164555480D01*
X155504107Y-164542867D01*
X155484402Y-164528253D01*
X155466223Y-164511777D01*
X155449747Y-164493598D01*
X155435133Y-164473893D01*
X155422520Y-164452849D01*
X155412030Y-164430671D01*
X155403765Y-164407571D01*
X155397804Y-164383773D01*
X155394204Y-164359504D01*
X155393000Y-164335000D01*
X155393000Y-163585000D01*
X155394204Y-163560496D01*
X155397804Y-163536227D01*
X155403765Y-163512429D01*
X155412030Y-163489329D01*
X155422520Y-163467151D01*
X155435133Y-163446107D01*
X155449747Y-163426402D01*
X155466223Y-163408223D01*
X155484402Y-163391747D01*
X155504107Y-163377133D01*
X155525151Y-163364520D01*
X155547329Y-163354030D01*
X155570429Y-163345765D01*
X155594227Y-163339804D01*
X155618496Y-163336204D01*
X155643000Y-163335000D01*
X157793000Y-163335000D01*
X157817504Y-163336204D01*
X157817504Y-163336204D01*
G37*
D24*
X156718000Y-163960000D03*
G04 #@! TD*
D23*
G04 #@! TO.C,C9*
G36*
X119717504Y-180481204D02*
X119741773Y-180484804D01*
X119765571Y-180490765D01*
X119788671Y-180499030D01*
X119810849Y-180509520D01*
X119831893Y-180522133D01*
X119851598Y-180536747D01*
X119869777Y-180553223D01*
X119886253Y-180571402D01*
X119900867Y-180591107D01*
X119913480Y-180612151D01*
X119923970Y-180634329D01*
X119932235Y-180657429D01*
X119938196Y-180681227D01*
X119941796Y-180705496D01*
X119943000Y-180730000D01*
X119943000Y-181480000D01*
X119941796Y-181504504D01*
X119938196Y-181528773D01*
X119932235Y-181552571D01*
X119923970Y-181575671D01*
X119913480Y-181597849D01*
X119900867Y-181618893D01*
X119886253Y-181638598D01*
X119869777Y-181656777D01*
X119851598Y-181673253D01*
X119831893Y-181687867D01*
X119810849Y-181700480D01*
X119788671Y-181710970D01*
X119765571Y-181719235D01*
X119741773Y-181725196D01*
X119717504Y-181728796D01*
X119693000Y-181730000D01*
X117543000Y-181730000D01*
X117518496Y-181728796D01*
X117494227Y-181725196D01*
X117470429Y-181719235D01*
X117447329Y-181710970D01*
X117425151Y-181700480D01*
X117404107Y-181687867D01*
X117384402Y-181673253D01*
X117366223Y-181656777D01*
X117349747Y-181638598D01*
X117335133Y-181618893D01*
X117322520Y-181597849D01*
X117312030Y-181575671D01*
X117303765Y-181552571D01*
X117297804Y-181528773D01*
X117294204Y-181504504D01*
X117293000Y-181480000D01*
X117293000Y-180730000D01*
X117294204Y-180705496D01*
X117297804Y-180681227D01*
X117303765Y-180657429D01*
X117312030Y-180634329D01*
X117322520Y-180612151D01*
X117335133Y-180591107D01*
X117349747Y-180571402D01*
X117366223Y-180553223D01*
X117384402Y-180536747D01*
X117404107Y-180522133D01*
X117425151Y-180509520D01*
X117447329Y-180499030D01*
X117470429Y-180490765D01*
X117494227Y-180484804D01*
X117518496Y-180481204D01*
X117543000Y-180480000D01*
X119693000Y-180480000D01*
X119717504Y-180481204D01*
X119717504Y-180481204D01*
G37*
D24*
X118618000Y-181105000D03*
D23*
G36*
X119717504Y-177681204D02*
X119741773Y-177684804D01*
X119765571Y-177690765D01*
X119788671Y-177699030D01*
X119810849Y-177709520D01*
X119831893Y-177722133D01*
X119851598Y-177736747D01*
X119869777Y-177753223D01*
X119886253Y-177771402D01*
X119900867Y-177791107D01*
X119913480Y-177812151D01*
X119923970Y-177834329D01*
X119932235Y-177857429D01*
X119938196Y-177881227D01*
X119941796Y-177905496D01*
X119943000Y-177930000D01*
X119943000Y-178680000D01*
X119941796Y-178704504D01*
X119938196Y-178728773D01*
X119932235Y-178752571D01*
X119923970Y-178775671D01*
X119913480Y-178797849D01*
X119900867Y-178818893D01*
X119886253Y-178838598D01*
X119869777Y-178856777D01*
X119851598Y-178873253D01*
X119831893Y-178887867D01*
X119810849Y-178900480D01*
X119788671Y-178910970D01*
X119765571Y-178919235D01*
X119741773Y-178925196D01*
X119717504Y-178928796D01*
X119693000Y-178930000D01*
X117543000Y-178930000D01*
X117518496Y-178928796D01*
X117494227Y-178925196D01*
X117470429Y-178919235D01*
X117447329Y-178910970D01*
X117425151Y-178900480D01*
X117404107Y-178887867D01*
X117384402Y-178873253D01*
X117366223Y-178856777D01*
X117349747Y-178838598D01*
X117335133Y-178818893D01*
X117322520Y-178797849D01*
X117312030Y-178775671D01*
X117303765Y-178752571D01*
X117297804Y-178728773D01*
X117294204Y-178704504D01*
X117293000Y-178680000D01*
X117293000Y-177930000D01*
X117294204Y-177905496D01*
X117297804Y-177881227D01*
X117303765Y-177857429D01*
X117312030Y-177834329D01*
X117322520Y-177812151D01*
X117335133Y-177791107D01*
X117349747Y-177771402D01*
X117366223Y-177753223D01*
X117384402Y-177736747D01*
X117404107Y-177722133D01*
X117425151Y-177709520D01*
X117447329Y-177699030D01*
X117470429Y-177690765D01*
X117494227Y-177684804D01*
X117518496Y-177681204D01*
X117543000Y-177680000D01*
X119693000Y-177680000D01*
X119717504Y-177681204D01*
X119717504Y-177681204D01*
G37*
D24*
X118618000Y-178305000D03*
G04 #@! TD*
D23*
G04 #@! TO.C,C10*
G36*
X132417504Y-177681204D02*
X132441773Y-177684804D01*
X132465571Y-177690765D01*
X132488671Y-177699030D01*
X132510849Y-177709520D01*
X132531893Y-177722133D01*
X132551598Y-177736747D01*
X132569777Y-177753223D01*
X132586253Y-177771402D01*
X132600867Y-177791107D01*
X132613480Y-177812151D01*
X132623970Y-177834329D01*
X132632235Y-177857429D01*
X132638196Y-177881227D01*
X132641796Y-177905496D01*
X132643000Y-177930000D01*
X132643000Y-178680000D01*
X132641796Y-178704504D01*
X132638196Y-178728773D01*
X132632235Y-178752571D01*
X132623970Y-178775671D01*
X132613480Y-178797849D01*
X132600867Y-178818893D01*
X132586253Y-178838598D01*
X132569777Y-178856777D01*
X132551598Y-178873253D01*
X132531893Y-178887867D01*
X132510849Y-178900480D01*
X132488671Y-178910970D01*
X132465571Y-178919235D01*
X132441773Y-178925196D01*
X132417504Y-178928796D01*
X132393000Y-178930000D01*
X130243000Y-178930000D01*
X130218496Y-178928796D01*
X130194227Y-178925196D01*
X130170429Y-178919235D01*
X130147329Y-178910970D01*
X130125151Y-178900480D01*
X130104107Y-178887867D01*
X130084402Y-178873253D01*
X130066223Y-178856777D01*
X130049747Y-178838598D01*
X130035133Y-178818893D01*
X130022520Y-178797849D01*
X130012030Y-178775671D01*
X130003765Y-178752571D01*
X129997804Y-178728773D01*
X129994204Y-178704504D01*
X129993000Y-178680000D01*
X129993000Y-177930000D01*
X129994204Y-177905496D01*
X129997804Y-177881227D01*
X130003765Y-177857429D01*
X130012030Y-177834329D01*
X130022520Y-177812151D01*
X130035133Y-177791107D01*
X130049747Y-177771402D01*
X130066223Y-177753223D01*
X130084402Y-177736747D01*
X130104107Y-177722133D01*
X130125151Y-177709520D01*
X130147329Y-177699030D01*
X130170429Y-177690765D01*
X130194227Y-177684804D01*
X130218496Y-177681204D01*
X130243000Y-177680000D01*
X132393000Y-177680000D01*
X132417504Y-177681204D01*
X132417504Y-177681204D01*
G37*
D24*
X131318000Y-178305000D03*
D23*
G36*
X132417504Y-180481204D02*
X132441773Y-180484804D01*
X132465571Y-180490765D01*
X132488671Y-180499030D01*
X132510849Y-180509520D01*
X132531893Y-180522133D01*
X132551598Y-180536747D01*
X132569777Y-180553223D01*
X132586253Y-180571402D01*
X132600867Y-180591107D01*
X132613480Y-180612151D01*
X132623970Y-180634329D01*
X132632235Y-180657429D01*
X132638196Y-180681227D01*
X132641796Y-180705496D01*
X132643000Y-180730000D01*
X132643000Y-181480000D01*
X132641796Y-181504504D01*
X132638196Y-181528773D01*
X132632235Y-181552571D01*
X132623970Y-181575671D01*
X132613480Y-181597849D01*
X132600867Y-181618893D01*
X132586253Y-181638598D01*
X132569777Y-181656777D01*
X132551598Y-181673253D01*
X132531893Y-181687867D01*
X132510849Y-181700480D01*
X132488671Y-181710970D01*
X132465571Y-181719235D01*
X132441773Y-181725196D01*
X132417504Y-181728796D01*
X132393000Y-181730000D01*
X130243000Y-181730000D01*
X130218496Y-181728796D01*
X130194227Y-181725196D01*
X130170429Y-181719235D01*
X130147329Y-181710970D01*
X130125151Y-181700480D01*
X130104107Y-181687867D01*
X130084402Y-181673253D01*
X130066223Y-181656777D01*
X130049747Y-181638598D01*
X130035133Y-181618893D01*
X130022520Y-181597849D01*
X130012030Y-181575671D01*
X130003765Y-181552571D01*
X129997804Y-181528773D01*
X129994204Y-181504504D01*
X129993000Y-181480000D01*
X129993000Y-180730000D01*
X129994204Y-180705496D01*
X129997804Y-180681227D01*
X130003765Y-180657429D01*
X130012030Y-180634329D01*
X130022520Y-180612151D01*
X130035133Y-180591107D01*
X130049747Y-180571402D01*
X130066223Y-180553223D01*
X130084402Y-180536747D01*
X130104107Y-180522133D01*
X130125151Y-180509520D01*
X130147329Y-180499030D01*
X130170429Y-180490765D01*
X130194227Y-180484804D01*
X130218496Y-180481204D01*
X130243000Y-180480000D01*
X132393000Y-180480000D01*
X132417504Y-180481204D01*
X132417504Y-180481204D01*
G37*
D24*
X131318000Y-181105000D03*
G04 #@! TD*
D23*
G04 #@! TO.C,C11*
G36*
X145117504Y-177681204D02*
X145141773Y-177684804D01*
X145165571Y-177690765D01*
X145188671Y-177699030D01*
X145210849Y-177709520D01*
X145231893Y-177722133D01*
X145251598Y-177736747D01*
X145269777Y-177753223D01*
X145286253Y-177771402D01*
X145300867Y-177791107D01*
X145313480Y-177812151D01*
X145323970Y-177834329D01*
X145332235Y-177857429D01*
X145338196Y-177881227D01*
X145341796Y-177905496D01*
X145343000Y-177930000D01*
X145343000Y-178680000D01*
X145341796Y-178704504D01*
X145338196Y-178728773D01*
X145332235Y-178752571D01*
X145323970Y-178775671D01*
X145313480Y-178797849D01*
X145300867Y-178818893D01*
X145286253Y-178838598D01*
X145269777Y-178856777D01*
X145251598Y-178873253D01*
X145231893Y-178887867D01*
X145210849Y-178900480D01*
X145188671Y-178910970D01*
X145165571Y-178919235D01*
X145141773Y-178925196D01*
X145117504Y-178928796D01*
X145093000Y-178930000D01*
X142943000Y-178930000D01*
X142918496Y-178928796D01*
X142894227Y-178925196D01*
X142870429Y-178919235D01*
X142847329Y-178910970D01*
X142825151Y-178900480D01*
X142804107Y-178887867D01*
X142784402Y-178873253D01*
X142766223Y-178856777D01*
X142749747Y-178838598D01*
X142735133Y-178818893D01*
X142722520Y-178797849D01*
X142712030Y-178775671D01*
X142703765Y-178752571D01*
X142697804Y-178728773D01*
X142694204Y-178704504D01*
X142693000Y-178680000D01*
X142693000Y-177930000D01*
X142694204Y-177905496D01*
X142697804Y-177881227D01*
X142703765Y-177857429D01*
X142712030Y-177834329D01*
X142722520Y-177812151D01*
X142735133Y-177791107D01*
X142749747Y-177771402D01*
X142766223Y-177753223D01*
X142784402Y-177736747D01*
X142804107Y-177722133D01*
X142825151Y-177709520D01*
X142847329Y-177699030D01*
X142870429Y-177690765D01*
X142894227Y-177684804D01*
X142918496Y-177681204D01*
X142943000Y-177680000D01*
X145093000Y-177680000D01*
X145117504Y-177681204D01*
X145117504Y-177681204D01*
G37*
D24*
X144018000Y-178305000D03*
D23*
G36*
X145117504Y-180481204D02*
X145141773Y-180484804D01*
X145165571Y-180490765D01*
X145188671Y-180499030D01*
X145210849Y-180509520D01*
X145231893Y-180522133D01*
X145251598Y-180536747D01*
X145269777Y-180553223D01*
X145286253Y-180571402D01*
X145300867Y-180591107D01*
X145313480Y-180612151D01*
X145323970Y-180634329D01*
X145332235Y-180657429D01*
X145338196Y-180681227D01*
X145341796Y-180705496D01*
X145343000Y-180730000D01*
X145343000Y-181480000D01*
X145341796Y-181504504D01*
X145338196Y-181528773D01*
X145332235Y-181552571D01*
X145323970Y-181575671D01*
X145313480Y-181597849D01*
X145300867Y-181618893D01*
X145286253Y-181638598D01*
X145269777Y-181656777D01*
X145251598Y-181673253D01*
X145231893Y-181687867D01*
X145210849Y-181700480D01*
X145188671Y-181710970D01*
X145165571Y-181719235D01*
X145141773Y-181725196D01*
X145117504Y-181728796D01*
X145093000Y-181730000D01*
X142943000Y-181730000D01*
X142918496Y-181728796D01*
X142894227Y-181725196D01*
X142870429Y-181719235D01*
X142847329Y-181710970D01*
X142825151Y-181700480D01*
X142804107Y-181687867D01*
X142784402Y-181673253D01*
X142766223Y-181656777D01*
X142749747Y-181638598D01*
X142735133Y-181618893D01*
X142722520Y-181597849D01*
X142712030Y-181575671D01*
X142703765Y-181552571D01*
X142697804Y-181528773D01*
X142694204Y-181504504D01*
X142693000Y-181480000D01*
X142693000Y-180730000D01*
X142694204Y-180705496D01*
X142697804Y-180681227D01*
X142703765Y-180657429D01*
X142712030Y-180634329D01*
X142722520Y-180612151D01*
X142735133Y-180591107D01*
X142749747Y-180571402D01*
X142766223Y-180553223D01*
X142784402Y-180536747D01*
X142804107Y-180522133D01*
X142825151Y-180509520D01*
X142847329Y-180499030D01*
X142870429Y-180490765D01*
X142894227Y-180484804D01*
X142918496Y-180481204D01*
X142943000Y-180480000D01*
X145093000Y-180480000D01*
X145117504Y-180481204D01*
X145117504Y-180481204D01*
G37*
D24*
X144018000Y-181105000D03*
G04 #@! TD*
D23*
G04 #@! TO.C,C12*
G36*
X157817504Y-180481204D02*
X157841773Y-180484804D01*
X157865571Y-180490765D01*
X157888671Y-180499030D01*
X157910849Y-180509520D01*
X157931893Y-180522133D01*
X157951598Y-180536747D01*
X157969777Y-180553223D01*
X157986253Y-180571402D01*
X158000867Y-180591107D01*
X158013480Y-180612151D01*
X158023970Y-180634329D01*
X158032235Y-180657429D01*
X158038196Y-180681227D01*
X158041796Y-180705496D01*
X158043000Y-180730000D01*
X158043000Y-181480000D01*
X158041796Y-181504504D01*
X158038196Y-181528773D01*
X158032235Y-181552571D01*
X158023970Y-181575671D01*
X158013480Y-181597849D01*
X158000867Y-181618893D01*
X157986253Y-181638598D01*
X157969777Y-181656777D01*
X157951598Y-181673253D01*
X157931893Y-181687867D01*
X157910849Y-181700480D01*
X157888671Y-181710970D01*
X157865571Y-181719235D01*
X157841773Y-181725196D01*
X157817504Y-181728796D01*
X157793000Y-181730000D01*
X155643000Y-181730000D01*
X155618496Y-181728796D01*
X155594227Y-181725196D01*
X155570429Y-181719235D01*
X155547329Y-181710970D01*
X155525151Y-181700480D01*
X155504107Y-181687867D01*
X155484402Y-181673253D01*
X155466223Y-181656777D01*
X155449747Y-181638598D01*
X155435133Y-181618893D01*
X155422520Y-181597849D01*
X155412030Y-181575671D01*
X155403765Y-181552571D01*
X155397804Y-181528773D01*
X155394204Y-181504504D01*
X155393000Y-181480000D01*
X155393000Y-180730000D01*
X155394204Y-180705496D01*
X155397804Y-180681227D01*
X155403765Y-180657429D01*
X155412030Y-180634329D01*
X155422520Y-180612151D01*
X155435133Y-180591107D01*
X155449747Y-180571402D01*
X155466223Y-180553223D01*
X155484402Y-180536747D01*
X155504107Y-180522133D01*
X155525151Y-180509520D01*
X155547329Y-180499030D01*
X155570429Y-180490765D01*
X155594227Y-180484804D01*
X155618496Y-180481204D01*
X155643000Y-180480000D01*
X157793000Y-180480000D01*
X157817504Y-180481204D01*
X157817504Y-180481204D01*
G37*
D24*
X156718000Y-181105000D03*
D23*
G36*
X157817504Y-177681204D02*
X157841773Y-177684804D01*
X157865571Y-177690765D01*
X157888671Y-177699030D01*
X157910849Y-177709520D01*
X157931893Y-177722133D01*
X157951598Y-177736747D01*
X157969777Y-177753223D01*
X157986253Y-177771402D01*
X158000867Y-177791107D01*
X158013480Y-177812151D01*
X158023970Y-177834329D01*
X158032235Y-177857429D01*
X158038196Y-177881227D01*
X158041796Y-177905496D01*
X158043000Y-177930000D01*
X158043000Y-178680000D01*
X158041796Y-178704504D01*
X158038196Y-178728773D01*
X158032235Y-178752571D01*
X158023970Y-178775671D01*
X158013480Y-178797849D01*
X158000867Y-178818893D01*
X157986253Y-178838598D01*
X157969777Y-178856777D01*
X157951598Y-178873253D01*
X157931893Y-178887867D01*
X157910849Y-178900480D01*
X157888671Y-178910970D01*
X157865571Y-178919235D01*
X157841773Y-178925196D01*
X157817504Y-178928796D01*
X157793000Y-178930000D01*
X155643000Y-178930000D01*
X155618496Y-178928796D01*
X155594227Y-178925196D01*
X155570429Y-178919235D01*
X155547329Y-178910970D01*
X155525151Y-178900480D01*
X155504107Y-178887867D01*
X155484402Y-178873253D01*
X155466223Y-178856777D01*
X155449747Y-178838598D01*
X155435133Y-178818893D01*
X155422520Y-178797849D01*
X155412030Y-178775671D01*
X155403765Y-178752571D01*
X155397804Y-178728773D01*
X155394204Y-178704504D01*
X155393000Y-178680000D01*
X155393000Y-177930000D01*
X155394204Y-177905496D01*
X155397804Y-177881227D01*
X155403765Y-177857429D01*
X155412030Y-177834329D01*
X155422520Y-177812151D01*
X155435133Y-177791107D01*
X155449747Y-177771402D01*
X155466223Y-177753223D01*
X155484402Y-177736747D01*
X155504107Y-177722133D01*
X155525151Y-177709520D01*
X155547329Y-177699030D01*
X155570429Y-177690765D01*
X155594227Y-177684804D01*
X155618496Y-177681204D01*
X155643000Y-177680000D01*
X157793000Y-177680000D01*
X157817504Y-177681204D01*
X157817504Y-177681204D01*
G37*
D24*
X156718000Y-178305000D03*
G04 #@! TD*
D23*
G04 #@! TO.C,C13*
G36*
X119717504Y-197626204D02*
X119741773Y-197629804D01*
X119765571Y-197635765D01*
X119788671Y-197644030D01*
X119810849Y-197654520D01*
X119831893Y-197667133D01*
X119851598Y-197681747D01*
X119869777Y-197698223D01*
X119886253Y-197716402D01*
X119900867Y-197736107D01*
X119913480Y-197757151D01*
X119923970Y-197779329D01*
X119932235Y-197802429D01*
X119938196Y-197826227D01*
X119941796Y-197850496D01*
X119943000Y-197875000D01*
X119943000Y-198625000D01*
X119941796Y-198649504D01*
X119938196Y-198673773D01*
X119932235Y-198697571D01*
X119923970Y-198720671D01*
X119913480Y-198742849D01*
X119900867Y-198763893D01*
X119886253Y-198783598D01*
X119869777Y-198801777D01*
X119851598Y-198818253D01*
X119831893Y-198832867D01*
X119810849Y-198845480D01*
X119788671Y-198855970D01*
X119765571Y-198864235D01*
X119741773Y-198870196D01*
X119717504Y-198873796D01*
X119693000Y-198875000D01*
X117543000Y-198875000D01*
X117518496Y-198873796D01*
X117494227Y-198870196D01*
X117470429Y-198864235D01*
X117447329Y-198855970D01*
X117425151Y-198845480D01*
X117404107Y-198832867D01*
X117384402Y-198818253D01*
X117366223Y-198801777D01*
X117349747Y-198783598D01*
X117335133Y-198763893D01*
X117322520Y-198742849D01*
X117312030Y-198720671D01*
X117303765Y-198697571D01*
X117297804Y-198673773D01*
X117294204Y-198649504D01*
X117293000Y-198625000D01*
X117293000Y-197875000D01*
X117294204Y-197850496D01*
X117297804Y-197826227D01*
X117303765Y-197802429D01*
X117312030Y-197779329D01*
X117322520Y-197757151D01*
X117335133Y-197736107D01*
X117349747Y-197716402D01*
X117366223Y-197698223D01*
X117384402Y-197681747D01*
X117404107Y-197667133D01*
X117425151Y-197654520D01*
X117447329Y-197644030D01*
X117470429Y-197635765D01*
X117494227Y-197629804D01*
X117518496Y-197626204D01*
X117543000Y-197625000D01*
X119693000Y-197625000D01*
X119717504Y-197626204D01*
X119717504Y-197626204D01*
G37*
D24*
X118618000Y-198250000D03*
D23*
G36*
X119717504Y-194826204D02*
X119741773Y-194829804D01*
X119765571Y-194835765D01*
X119788671Y-194844030D01*
X119810849Y-194854520D01*
X119831893Y-194867133D01*
X119851598Y-194881747D01*
X119869777Y-194898223D01*
X119886253Y-194916402D01*
X119900867Y-194936107D01*
X119913480Y-194957151D01*
X119923970Y-194979329D01*
X119932235Y-195002429D01*
X119938196Y-195026227D01*
X119941796Y-195050496D01*
X119943000Y-195075000D01*
X119943000Y-195825000D01*
X119941796Y-195849504D01*
X119938196Y-195873773D01*
X119932235Y-195897571D01*
X119923970Y-195920671D01*
X119913480Y-195942849D01*
X119900867Y-195963893D01*
X119886253Y-195983598D01*
X119869777Y-196001777D01*
X119851598Y-196018253D01*
X119831893Y-196032867D01*
X119810849Y-196045480D01*
X119788671Y-196055970D01*
X119765571Y-196064235D01*
X119741773Y-196070196D01*
X119717504Y-196073796D01*
X119693000Y-196075000D01*
X117543000Y-196075000D01*
X117518496Y-196073796D01*
X117494227Y-196070196D01*
X117470429Y-196064235D01*
X117447329Y-196055970D01*
X117425151Y-196045480D01*
X117404107Y-196032867D01*
X117384402Y-196018253D01*
X117366223Y-196001777D01*
X117349747Y-195983598D01*
X117335133Y-195963893D01*
X117322520Y-195942849D01*
X117312030Y-195920671D01*
X117303765Y-195897571D01*
X117297804Y-195873773D01*
X117294204Y-195849504D01*
X117293000Y-195825000D01*
X117293000Y-195075000D01*
X117294204Y-195050496D01*
X117297804Y-195026227D01*
X117303765Y-195002429D01*
X117312030Y-194979329D01*
X117322520Y-194957151D01*
X117335133Y-194936107D01*
X117349747Y-194916402D01*
X117366223Y-194898223D01*
X117384402Y-194881747D01*
X117404107Y-194867133D01*
X117425151Y-194854520D01*
X117447329Y-194844030D01*
X117470429Y-194835765D01*
X117494227Y-194829804D01*
X117518496Y-194826204D01*
X117543000Y-194825000D01*
X119693000Y-194825000D01*
X119717504Y-194826204D01*
X119717504Y-194826204D01*
G37*
D24*
X118618000Y-195450000D03*
G04 #@! TD*
D23*
G04 #@! TO.C,C14*
G36*
X132417504Y-197626204D02*
X132441773Y-197629804D01*
X132465571Y-197635765D01*
X132488671Y-197644030D01*
X132510849Y-197654520D01*
X132531893Y-197667133D01*
X132551598Y-197681747D01*
X132569777Y-197698223D01*
X132586253Y-197716402D01*
X132600867Y-197736107D01*
X132613480Y-197757151D01*
X132623970Y-197779329D01*
X132632235Y-197802429D01*
X132638196Y-197826227D01*
X132641796Y-197850496D01*
X132643000Y-197875000D01*
X132643000Y-198625000D01*
X132641796Y-198649504D01*
X132638196Y-198673773D01*
X132632235Y-198697571D01*
X132623970Y-198720671D01*
X132613480Y-198742849D01*
X132600867Y-198763893D01*
X132586253Y-198783598D01*
X132569777Y-198801777D01*
X132551598Y-198818253D01*
X132531893Y-198832867D01*
X132510849Y-198845480D01*
X132488671Y-198855970D01*
X132465571Y-198864235D01*
X132441773Y-198870196D01*
X132417504Y-198873796D01*
X132393000Y-198875000D01*
X130243000Y-198875000D01*
X130218496Y-198873796D01*
X130194227Y-198870196D01*
X130170429Y-198864235D01*
X130147329Y-198855970D01*
X130125151Y-198845480D01*
X130104107Y-198832867D01*
X130084402Y-198818253D01*
X130066223Y-198801777D01*
X130049747Y-198783598D01*
X130035133Y-198763893D01*
X130022520Y-198742849D01*
X130012030Y-198720671D01*
X130003765Y-198697571D01*
X129997804Y-198673773D01*
X129994204Y-198649504D01*
X129993000Y-198625000D01*
X129993000Y-197875000D01*
X129994204Y-197850496D01*
X129997804Y-197826227D01*
X130003765Y-197802429D01*
X130012030Y-197779329D01*
X130022520Y-197757151D01*
X130035133Y-197736107D01*
X130049747Y-197716402D01*
X130066223Y-197698223D01*
X130084402Y-197681747D01*
X130104107Y-197667133D01*
X130125151Y-197654520D01*
X130147329Y-197644030D01*
X130170429Y-197635765D01*
X130194227Y-197629804D01*
X130218496Y-197626204D01*
X130243000Y-197625000D01*
X132393000Y-197625000D01*
X132417504Y-197626204D01*
X132417504Y-197626204D01*
G37*
D24*
X131318000Y-198250000D03*
D23*
G36*
X132417504Y-194826204D02*
X132441773Y-194829804D01*
X132465571Y-194835765D01*
X132488671Y-194844030D01*
X132510849Y-194854520D01*
X132531893Y-194867133D01*
X132551598Y-194881747D01*
X132569777Y-194898223D01*
X132586253Y-194916402D01*
X132600867Y-194936107D01*
X132613480Y-194957151D01*
X132623970Y-194979329D01*
X132632235Y-195002429D01*
X132638196Y-195026227D01*
X132641796Y-195050496D01*
X132643000Y-195075000D01*
X132643000Y-195825000D01*
X132641796Y-195849504D01*
X132638196Y-195873773D01*
X132632235Y-195897571D01*
X132623970Y-195920671D01*
X132613480Y-195942849D01*
X132600867Y-195963893D01*
X132586253Y-195983598D01*
X132569777Y-196001777D01*
X132551598Y-196018253D01*
X132531893Y-196032867D01*
X132510849Y-196045480D01*
X132488671Y-196055970D01*
X132465571Y-196064235D01*
X132441773Y-196070196D01*
X132417504Y-196073796D01*
X132393000Y-196075000D01*
X130243000Y-196075000D01*
X130218496Y-196073796D01*
X130194227Y-196070196D01*
X130170429Y-196064235D01*
X130147329Y-196055970D01*
X130125151Y-196045480D01*
X130104107Y-196032867D01*
X130084402Y-196018253D01*
X130066223Y-196001777D01*
X130049747Y-195983598D01*
X130035133Y-195963893D01*
X130022520Y-195942849D01*
X130012030Y-195920671D01*
X130003765Y-195897571D01*
X129997804Y-195873773D01*
X129994204Y-195849504D01*
X129993000Y-195825000D01*
X129993000Y-195075000D01*
X129994204Y-195050496D01*
X129997804Y-195026227D01*
X130003765Y-195002429D01*
X130012030Y-194979329D01*
X130022520Y-194957151D01*
X130035133Y-194936107D01*
X130049747Y-194916402D01*
X130066223Y-194898223D01*
X130084402Y-194881747D01*
X130104107Y-194867133D01*
X130125151Y-194854520D01*
X130147329Y-194844030D01*
X130170429Y-194835765D01*
X130194227Y-194829804D01*
X130218496Y-194826204D01*
X130243000Y-194825000D01*
X132393000Y-194825000D01*
X132417504Y-194826204D01*
X132417504Y-194826204D01*
G37*
D24*
X131318000Y-195450000D03*
G04 #@! TD*
D23*
G04 #@! TO.C,C15*
G36*
X145117504Y-194826204D02*
X145141773Y-194829804D01*
X145165571Y-194835765D01*
X145188671Y-194844030D01*
X145210849Y-194854520D01*
X145231893Y-194867133D01*
X145251598Y-194881747D01*
X145269777Y-194898223D01*
X145286253Y-194916402D01*
X145300867Y-194936107D01*
X145313480Y-194957151D01*
X145323970Y-194979329D01*
X145332235Y-195002429D01*
X145338196Y-195026227D01*
X145341796Y-195050496D01*
X145343000Y-195075000D01*
X145343000Y-195825000D01*
X145341796Y-195849504D01*
X145338196Y-195873773D01*
X145332235Y-195897571D01*
X145323970Y-195920671D01*
X145313480Y-195942849D01*
X145300867Y-195963893D01*
X145286253Y-195983598D01*
X145269777Y-196001777D01*
X145251598Y-196018253D01*
X145231893Y-196032867D01*
X145210849Y-196045480D01*
X145188671Y-196055970D01*
X145165571Y-196064235D01*
X145141773Y-196070196D01*
X145117504Y-196073796D01*
X145093000Y-196075000D01*
X142943000Y-196075000D01*
X142918496Y-196073796D01*
X142894227Y-196070196D01*
X142870429Y-196064235D01*
X142847329Y-196055970D01*
X142825151Y-196045480D01*
X142804107Y-196032867D01*
X142784402Y-196018253D01*
X142766223Y-196001777D01*
X142749747Y-195983598D01*
X142735133Y-195963893D01*
X142722520Y-195942849D01*
X142712030Y-195920671D01*
X142703765Y-195897571D01*
X142697804Y-195873773D01*
X142694204Y-195849504D01*
X142693000Y-195825000D01*
X142693000Y-195075000D01*
X142694204Y-195050496D01*
X142697804Y-195026227D01*
X142703765Y-195002429D01*
X142712030Y-194979329D01*
X142722520Y-194957151D01*
X142735133Y-194936107D01*
X142749747Y-194916402D01*
X142766223Y-194898223D01*
X142784402Y-194881747D01*
X142804107Y-194867133D01*
X142825151Y-194854520D01*
X142847329Y-194844030D01*
X142870429Y-194835765D01*
X142894227Y-194829804D01*
X142918496Y-194826204D01*
X142943000Y-194825000D01*
X145093000Y-194825000D01*
X145117504Y-194826204D01*
X145117504Y-194826204D01*
G37*
D24*
X144018000Y-195450000D03*
D23*
G36*
X145117504Y-197626204D02*
X145141773Y-197629804D01*
X145165571Y-197635765D01*
X145188671Y-197644030D01*
X145210849Y-197654520D01*
X145231893Y-197667133D01*
X145251598Y-197681747D01*
X145269777Y-197698223D01*
X145286253Y-197716402D01*
X145300867Y-197736107D01*
X145313480Y-197757151D01*
X145323970Y-197779329D01*
X145332235Y-197802429D01*
X145338196Y-197826227D01*
X145341796Y-197850496D01*
X145343000Y-197875000D01*
X145343000Y-198625000D01*
X145341796Y-198649504D01*
X145338196Y-198673773D01*
X145332235Y-198697571D01*
X145323970Y-198720671D01*
X145313480Y-198742849D01*
X145300867Y-198763893D01*
X145286253Y-198783598D01*
X145269777Y-198801777D01*
X145251598Y-198818253D01*
X145231893Y-198832867D01*
X145210849Y-198845480D01*
X145188671Y-198855970D01*
X145165571Y-198864235D01*
X145141773Y-198870196D01*
X145117504Y-198873796D01*
X145093000Y-198875000D01*
X142943000Y-198875000D01*
X142918496Y-198873796D01*
X142894227Y-198870196D01*
X142870429Y-198864235D01*
X142847329Y-198855970D01*
X142825151Y-198845480D01*
X142804107Y-198832867D01*
X142784402Y-198818253D01*
X142766223Y-198801777D01*
X142749747Y-198783598D01*
X142735133Y-198763893D01*
X142722520Y-198742849D01*
X142712030Y-198720671D01*
X142703765Y-198697571D01*
X142697804Y-198673773D01*
X142694204Y-198649504D01*
X142693000Y-198625000D01*
X142693000Y-197875000D01*
X142694204Y-197850496D01*
X142697804Y-197826227D01*
X142703765Y-197802429D01*
X142712030Y-197779329D01*
X142722520Y-197757151D01*
X142735133Y-197736107D01*
X142749747Y-197716402D01*
X142766223Y-197698223D01*
X142784402Y-197681747D01*
X142804107Y-197667133D01*
X142825151Y-197654520D01*
X142847329Y-197644030D01*
X142870429Y-197635765D01*
X142894227Y-197629804D01*
X142918496Y-197626204D01*
X142943000Y-197625000D01*
X145093000Y-197625000D01*
X145117504Y-197626204D01*
X145117504Y-197626204D01*
G37*
D24*
X144018000Y-198250000D03*
G04 #@! TD*
D23*
G04 #@! TO.C,C16*
G36*
X157817504Y-197626204D02*
X157841773Y-197629804D01*
X157865571Y-197635765D01*
X157888671Y-197644030D01*
X157910849Y-197654520D01*
X157931893Y-197667133D01*
X157951598Y-197681747D01*
X157969777Y-197698223D01*
X157986253Y-197716402D01*
X158000867Y-197736107D01*
X158013480Y-197757151D01*
X158023970Y-197779329D01*
X158032235Y-197802429D01*
X158038196Y-197826227D01*
X158041796Y-197850496D01*
X158043000Y-197875000D01*
X158043000Y-198625000D01*
X158041796Y-198649504D01*
X158038196Y-198673773D01*
X158032235Y-198697571D01*
X158023970Y-198720671D01*
X158013480Y-198742849D01*
X158000867Y-198763893D01*
X157986253Y-198783598D01*
X157969777Y-198801777D01*
X157951598Y-198818253D01*
X157931893Y-198832867D01*
X157910849Y-198845480D01*
X157888671Y-198855970D01*
X157865571Y-198864235D01*
X157841773Y-198870196D01*
X157817504Y-198873796D01*
X157793000Y-198875000D01*
X155643000Y-198875000D01*
X155618496Y-198873796D01*
X155594227Y-198870196D01*
X155570429Y-198864235D01*
X155547329Y-198855970D01*
X155525151Y-198845480D01*
X155504107Y-198832867D01*
X155484402Y-198818253D01*
X155466223Y-198801777D01*
X155449747Y-198783598D01*
X155435133Y-198763893D01*
X155422520Y-198742849D01*
X155412030Y-198720671D01*
X155403765Y-198697571D01*
X155397804Y-198673773D01*
X155394204Y-198649504D01*
X155393000Y-198625000D01*
X155393000Y-197875000D01*
X155394204Y-197850496D01*
X155397804Y-197826227D01*
X155403765Y-197802429D01*
X155412030Y-197779329D01*
X155422520Y-197757151D01*
X155435133Y-197736107D01*
X155449747Y-197716402D01*
X155466223Y-197698223D01*
X155484402Y-197681747D01*
X155504107Y-197667133D01*
X155525151Y-197654520D01*
X155547329Y-197644030D01*
X155570429Y-197635765D01*
X155594227Y-197629804D01*
X155618496Y-197626204D01*
X155643000Y-197625000D01*
X157793000Y-197625000D01*
X157817504Y-197626204D01*
X157817504Y-197626204D01*
G37*
D24*
X156718000Y-198250000D03*
D23*
G36*
X157817504Y-194826204D02*
X157841773Y-194829804D01*
X157865571Y-194835765D01*
X157888671Y-194844030D01*
X157910849Y-194854520D01*
X157931893Y-194867133D01*
X157951598Y-194881747D01*
X157969777Y-194898223D01*
X157986253Y-194916402D01*
X158000867Y-194936107D01*
X158013480Y-194957151D01*
X158023970Y-194979329D01*
X158032235Y-195002429D01*
X158038196Y-195026227D01*
X158041796Y-195050496D01*
X158043000Y-195075000D01*
X158043000Y-195825000D01*
X158041796Y-195849504D01*
X158038196Y-195873773D01*
X158032235Y-195897571D01*
X158023970Y-195920671D01*
X158013480Y-195942849D01*
X158000867Y-195963893D01*
X157986253Y-195983598D01*
X157969777Y-196001777D01*
X157951598Y-196018253D01*
X157931893Y-196032867D01*
X157910849Y-196045480D01*
X157888671Y-196055970D01*
X157865571Y-196064235D01*
X157841773Y-196070196D01*
X157817504Y-196073796D01*
X157793000Y-196075000D01*
X155643000Y-196075000D01*
X155618496Y-196073796D01*
X155594227Y-196070196D01*
X155570429Y-196064235D01*
X155547329Y-196055970D01*
X155525151Y-196045480D01*
X155504107Y-196032867D01*
X155484402Y-196018253D01*
X155466223Y-196001777D01*
X155449747Y-195983598D01*
X155435133Y-195963893D01*
X155422520Y-195942849D01*
X155412030Y-195920671D01*
X155403765Y-195897571D01*
X155397804Y-195873773D01*
X155394204Y-195849504D01*
X155393000Y-195825000D01*
X155393000Y-195075000D01*
X155394204Y-195050496D01*
X155397804Y-195026227D01*
X155403765Y-195002429D01*
X155412030Y-194979329D01*
X155422520Y-194957151D01*
X155435133Y-194936107D01*
X155449747Y-194916402D01*
X155466223Y-194898223D01*
X155484402Y-194881747D01*
X155504107Y-194867133D01*
X155525151Y-194854520D01*
X155547329Y-194844030D01*
X155570429Y-194835765D01*
X155594227Y-194829804D01*
X155618496Y-194826204D01*
X155643000Y-194825000D01*
X157793000Y-194825000D01*
X157817504Y-194826204D01*
X157817504Y-194826204D01*
G37*
D24*
X156718000Y-195450000D03*
G04 #@! TD*
D23*
G04 #@! TO.C,C17*
G36*
X174962504Y-146191204D02*
X174986773Y-146194804D01*
X175010571Y-146200765D01*
X175033671Y-146209030D01*
X175055849Y-146219520D01*
X175076893Y-146232133D01*
X175096598Y-146246747D01*
X175114777Y-146263223D01*
X175131253Y-146281402D01*
X175145867Y-146301107D01*
X175158480Y-146322151D01*
X175168970Y-146344329D01*
X175177235Y-146367429D01*
X175183196Y-146391227D01*
X175186796Y-146415496D01*
X175188000Y-146440000D01*
X175188000Y-147190000D01*
X175186796Y-147214504D01*
X175183196Y-147238773D01*
X175177235Y-147262571D01*
X175168970Y-147285671D01*
X175158480Y-147307849D01*
X175145867Y-147328893D01*
X175131253Y-147348598D01*
X175114777Y-147366777D01*
X175096598Y-147383253D01*
X175076893Y-147397867D01*
X175055849Y-147410480D01*
X175033671Y-147420970D01*
X175010571Y-147429235D01*
X174986773Y-147435196D01*
X174962504Y-147438796D01*
X174938000Y-147440000D01*
X172788000Y-147440000D01*
X172763496Y-147438796D01*
X172739227Y-147435196D01*
X172715429Y-147429235D01*
X172692329Y-147420970D01*
X172670151Y-147410480D01*
X172649107Y-147397867D01*
X172629402Y-147383253D01*
X172611223Y-147366777D01*
X172594747Y-147348598D01*
X172580133Y-147328893D01*
X172567520Y-147307849D01*
X172557030Y-147285671D01*
X172548765Y-147262571D01*
X172542804Y-147238773D01*
X172539204Y-147214504D01*
X172538000Y-147190000D01*
X172538000Y-146440000D01*
X172539204Y-146415496D01*
X172542804Y-146391227D01*
X172548765Y-146367429D01*
X172557030Y-146344329D01*
X172567520Y-146322151D01*
X172580133Y-146301107D01*
X172594747Y-146281402D01*
X172611223Y-146263223D01*
X172629402Y-146246747D01*
X172649107Y-146232133D01*
X172670151Y-146219520D01*
X172692329Y-146209030D01*
X172715429Y-146200765D01*
X172739227Y-146194804D01*
X172763496Y-146191204D01*
X172788000Y-146190000D01*
X174938000Y-146190000D01*
X174962504Y-146191204D01*
X174962504Y-146191204D01*
G37*
D24*
X173863000Y-146815000D03*
D23*
G36*
X174962504Y-143391204D02*
X174986773Y-143394804D01*
X175010571Y-143400765D01*
X175033671Y-143409030D01*
X175055849Y-143419520D01*
X175076893Y-143432133D01*
X175096598Y-143446747D01*
X175114777Y-143463223D01*
X175131253Y-143481402D01*
X175145867Y-143501107D01*
X175158480Y-143522151D01*
X175168970Y-143544329D01*
X175177235Y-143567429D01*
X175183196Y-143591227D01*
X175186796Y-143615496D01*
X175188000Y-143640000D01*
X175188000Y-144390000D01*
X175186796Y-144414504D01*
X175183196Y-144438773D01*
X175177235Y-144462571D01*
X175168970Y-144485671D01*
X175158480Y-144507849D01*
X175145867Y-144528893D01*
X175131253Y-144548598D01*
X175114777Y-144566777D01*
X175096598Y-144583253D01*
X175076893Y-144597867D01*
X175055849Y-144610480D01*
X175033671Y-144620970D01*
X175010571Y-144629235D01*
X174986773Y-144635196D01*
X174962504Y-144638796D01*
X174938000Y-144640000D01*
X172788000Y-144640000D01*
X172763496Y-144638796D01*
X172739227Y-144635196D01*
X172715429Y-144629235D01*
X172692329Y-144620970D01*
X172670151Y-144610480D01*
X172649107Y-144597867D01*
X172629402Y-144583253D01*
X172611223Y-144566777D01*
X172594747Y-144548598D01*
X172580133Y-144528893D01*
X172567520Y-144507849D01*
X172557030Y-144485671D01*
X172548765Y-144462571D01*
X172542804Y-144438773D01*
X172539204Y-144414504D01*
X172538000Y-144390000D01*
X172538000Y-143640000D01*
X172539204Y-143615496D01*
X172542804Y-143591227D01*
X172548765Y-143567429D01*
X172557030Y-143544329D01*
X172567520Y-143522151D01*
X172580133Y-143501107D01*
X172594747Y-143481402D01*
X172611223Y-143463223D01*
X172629402Y-143446747D01*
X172649107Y-143432133D01*
X172670151Y-143419520D01*
X172692329Y-143409030D01*
X172715429Y-143400765D01*
X172739227Y-143394804D01*
X172763496Y-143391204D01*
X172788000Y-143390000D01*
X174938000Y-143390000D01*
X174962504Y-143391204D01*
X174962504Y-143391204D01*
G37*
D24*
X173863000Y-144015000D03*
G04 #@! TD*
D23*
G04 #@! TO.C,C18*
G36*
X174962504Y-160536204D02*
X174986773Y-160539804D01*
X175010571Y-160545765D01*
X175033671Y-160554030D01*
X175055849Y-160564520D01*
X175076893Y-160577133D01*
X175096598Y-160591747D01*
X175114777Y-160608223D01*
X175131253Y-160626402D01*
X175145867Y-160646107D01*
X175158480Y-160667151D01*
X175168970Y-160689329D01*
X175177235Y-160712429D01*
X175183196Y-160736227D01*
X175186796Y-160760496D01*
X175188000Y-160785000D01*
X175188000Y-161535000D01*
X175186796Y-161559504D01*
X175183196Y-161583773D01*
X175177235Y-161607571D01*
X175168970Y-161630671D01*
X175158480Y-161652849D01*
X175145867Y-161673893D01*
X175131253Y-161693598D01*
X175114777Y-161711777D01*
X175096598Y-161728253D01*
X175076893Y-161742867D01*
X175055849Y-161755480D01*
X175033671Y-161765970D01*
X175010571Y-161774235D01*
X174986773Y-161780196D01*
X174962504Y-161783796D01*
X174938000Y-161785000D01*
X172788000Y-161785000D01*
X172763496Y-161783796D01*
X172739227Y-161780196D01*
X172715429Y-161774235D01*
X172692329Y-161765970D01*
X172670151Y-161755480D01*
X172649107Y-161742867D01*
X172629402Y-161728253D01*
X172611223Y-161711777D01*
X172594747Y-161693598D01*
X172580133Y-161673893D01*
X172567520Y-161652849D01*
X172557030Y-161630671D01*
X172548765Y-161607571D01*
X172542804Y-161583773D01*
X172539204Y-161559504D01*
X172538000Y-161535000D01*
X172538000Y-160785000D01*
X172539204Y-160760496D01*
X172542804Y-160736227D01*
X172548765Y-160712429D01*
X172557030Y-160689329D01*
X172567520Y-160667151D01*
X172580133Y-160646107D01*
X172594747Y-160626402D01*
X172611223Y-160608223D01*
X172629402Y-160591747D01*
X172649107Y-160577133D01*
X172670151Y-160564520D01*
X172692329Y-160554030D01*
X172715429Y-160545765D01*
X172739227Y-160539804D01*
X172763496Y-160536204D01*
X172788000Y-160535000D01*
X174938000Y-160535000D01*
X174962504Y-160536204D01*
X174962504Y-160536204D01*
G37*
D24*
X173863000Y-161160000D03*
D23*
G36*
X174962504Y-163336204D02*
X174986773Y-163339804D01*
X175010571Y-163345765D01*
X175033671Y-163354030D01*
X175055849Y-163364520D01*
X175076893Y-163377133D01*
X175096598Y-163391747D01*
X175114777Y-163408223D01*
X175131253Y-163426402D01*
X175145867Y-163446107D01*
X175158480Y-163467151D01*
X175168970Y-163489329D01*
X175177235Y-163512429D01*
X175183196Y-163536227D01*
X175186796Y-163560496D01*
X175188000Y-163585000D01*
X175188000Y-164335000D01*
X175186796Y-164359504D01*
X175183196Y-164383773D01*
X175177235Y-164407571D01*
X175168970Y-164430671D01*
X175158480Y-164452849D01*
X175145867Y-164473893D01*
X175131253Y-164493598D01*
X175114777Y-164511777D01*
X175096598Y-164528253D01*
X175076893Y-164542867D01*
X175055849Y-164555480D01*
X175033671Y-164565970D01*
X175010571Y-164574235D01*
X174986773Y-164580196D01*
X174962504Y-164583796D01*
X174938000Y-164585000D01*
X172788000Y-164585000D01*
X172763496Y-164583796D01*
X172739227Y-164580196D01*
X172715429Y-164574235D01*
X172692329Y-164565970D01*
X172670151Y-164555480D01*
X172649107Y-164542867D01*
X172629402Y-164528253D01*
X172611223Y-164511777D01*
X172594747Y-164493598D01*
X172580133Y-164473893D01*
X172567520Y-164452849D01*
X172557030Y-164430671D01*
X172548765Y-164407571D01*
X172542804Y-164383773D01*
X172539204Y-164359504D01*
X172538000Y-164335000D01*
X172538000Y-163585000D01*
X172539204Y-163560496D01*
X172542804Y-163536227D01*
X172548765Y-163512429D01*
X172557030Y-163489329D01*
X172567520Y-163467151D01*
X172580133Y-163446107D01*
X172594747Y-163426402D01*
X172611223Y-163408223D01*
X172629402Y-163391747D01*
X172649107Y-163377133D01*
X172670151Y-163364520D01*
X172692329Y-163354030D01*
X172715429Y-163345765D01*
X172739227Y-163339804D01*
X172763496Y-163336204D01*
X172788000Y-163335000D01*
X174938000Y-163335000D01*
X174962504Y-163336204D01*
X174962504Y-163336204D01*
G37*
D24*
X173863000Y-163960000D03*
G04 #@! TD*
D23*
G04 #@! TO.C,C19*
G36*
X174962504Y-177681204D02*
X174986773Y-177684804D01*
X175010571Y-177690765D01*
X175033671Y-177699030D01*
X175055849Y-177709520D01*
X175076893Y-177722133D01*
X175096598Y-177736747D01*
X175114777Y-177753223D01*
X175131253Y-177771402D01*
X175145867Y-177791107D01*
X175158480Y-177812151D01*
X175168970Y-177834329D01*
X175177235Y-177857429D01*
X175183196Y-177881227D01*
X175186796Y-177905496D01*
X175188000Y-177930000D01*
X175188000Y-178680000D01*
X175186796Y-178704504D01*
X175183196Y-178728773D01*
X175177235Y-178752571D01*
X175168970Y-178775671D01*
X175158480Y-178797849D01*
X175145867Y-178818893D01*
X175131253Y-178838598D01*
X175114777Y-178856777D01*
X175096598Y-178873253D01*
X175076893Y-178887867D01*
X175055849Y-178900480D01*
X175033671Y-178910970D01*
X175010571Y-178919235D01*
X174986773Y-178925196D01*
X174962504Y-178928796D01*
X174938000Y-178930000D01*
X172788000Y-178930000D01*
X172763496Y-178928796D01*
X172739227Y-178925196D01*
X172715429Y-178919235D01*
X172692329Y-178910970D01*
X172670151Y-178900480D01*
X172649107Y-178887867D01*
X172629402Y-178873253D01*
X172611223Y-178856777D01*
X172594747Y-178838598D01*
X172580133Y-178818893D01*
X172567520Y-178797849D01*
X172557030Y-178775671D01*
X172548765Y-178752571D01*
X172542804Y-178728773D01*
X172539204Y-178704504D01*
X172538000Y-178680000D01*
X172538000Y-177930000D01*
X172539204Y-177905496D01*
X172542804Y-177881227D01*
X172548765Y-177857429D01*
X172557030Y-177834329D01*
X172567520Y-177812151D01*
X172580133Y-177791107D01*
X172594747Y-177771402D01*
X172611223Y-177753223D01*
X172629402Y-177736747D01*
X172649107Y-177722133D01*
X172670151Y-177709520D01*
X172692329Y-177699030D01*
X172715429Y-177690765D01*
X172739227Y-177684804D01*
X172763496Y-177681204D01*
X172788000Y-177680000D01*
X174938000Y-177680000D01*
X174962504Y-177681204D01*
X174962504Y-177681204D01*
G37*
D24*
X173863000Y-178305000D03*
D23*
G36*
X174962504Y-180481204D02*
X174986773Y-180484804D01*
X175010571Y-180490765D01*
X175033671Y-180499030D01*
X175055849Y-180509520D01*
X175076893Y-180522133D01*
X175096598Y-180536747D01*
X175114777Y-180553223D01*
X175131253Y-180571402D01*
X175145867Y-180591107D01*
X175158480Y-180612151D01*
X175168970Y-180634329D01*
X175177235Y-180657429D01*
X175183196Y-180681227D01*
X175186796Y-180705496D01*
X175188000Y-180730000D01*
X175188000Y-181480000D01*
X175186796Y-181504504D01*
X175183196Y-181528773D01*
X175177235Y-181552571D01*
X175168970Y-181575671D01*
X175158480Y-181597849D01*
X175145867Y-181618893D01*
X175131253Y-181638598D01*
X175114777Y-181656777D01*
X175096598Y-181673253D01*
X175076893Y-181687867D01*
X175055849Y-181700480D01*
X175033671Y-181710970D01*
X175010571Y-181719235D01*
X174986773Y-181725196D01*
X174962504Y-181728796D01*
X174938000Y-181730000D01*
X172788000Y-181730000D01*
X172763496Y-181728796D01*
X172739227Y-181725196D01*
X172715429Y-181719235D01*
X172692329Y-181710970D01*
X172670151Y-181700480D01*
X172649107Y-181687867D01*
X172629402Y-181673253D01*
X172611223Y-181656777D01*
X172594747Y-181638598D01*
X172580133Y-181618893D01*
X172567520Y-181597849D01*
X172557030Y-181575671D01*
X172548765Y-181552571D01*
X172542804Y-181528773D01*
X172539204Y-181504504D01*
X172538000Y-181480000D01*
X172538000Y-180730000D01*
X172539204Y-180705496D01*
X172542804Y-180681227D01*
X172548765Y-180657429D01*
X172557030Y-180634329D01*
X172567520Y-180612151D01*
X172580133Y-180591107D01*
X172594747Y-180571402D01*
X172611223Y-180553223D01*
X172629402Y-180536747D01*
X172649107Y-180522133D01*
X172670151Y-180509520D01*
X172692329Y-180499030D01*
X172715429Y-180490765D01*
X172739227Y-180484804D01*
X172763496Y-180481204D01*
X172788000Y-180480000D01*
X174938000Y-180480000D01*
X174962504Y-180481204D01*
X174962504Y-180481204D01*
G37*
D24*
X173863000Y-181105000D03*
G04 #@! TD*
D23*
G04 #@! TO.C,C20*
G36*
X174962504Y-197626204D02*
X174986773Y-197629804D01*
X175010571Y-197635765D01*
X175033671Y-197644030D01*
X175055849Y-197654520D01*
X175076893Y-197667133D01*
X175096598Y-197681747D01*
X175114777Y-197698223D01*
X175131253Y-197716402D01*
X175145867Y-197736107D01*
X175158480Y-197757151D01*
X175168970Y-197779329D01*
X175177235Y-197802429D01*
X175183196Y-197826227D01*
X175186796Y-197850496D01*
X175188000Y-197875000D01*
X175188000Y-198625000D01*
X175186796Y-198649504D01*
X175183196Y-198673773D01*
X175177235Y-198697571D01*
X175168970Y-198720671D01*
X175158480Y-198742849D01*
X175145867Y-198763893D01*
X175131253Y-198783598D01*
X175114777Y-198801777D01*
X175096598Y-198818253D01*
X175076893Y-198832867D01*
X175055849Y-198845480D01*
X175033671Y-198855970D01*
X175010571Y-198864235D01*
X174986773Y-198870196D01*
X174962504Y-198873796D01*
X174938000Y-198875000D01*
X172788000Y-198875000D01*
X172763496Y-198873796D01*
X172739227Y-198870196D01*
X172715429Y-198864235D01*
X172692329Y-198855970D01*
X172670151Y-198845480D01*
X172649107Y-198832867D01*
X172629402Y-198818253D01*
X172611223Y-198801777D01*
X172594747Y-198783598D01*
X172580133Y-198763893D01*
X172567520Y-198742849D01*
X172557030Y-198720671D01*
X172548765Y-198697571D01*
X172542804Y-198673773D01*
X172539204Y-198649504D01*
X172538000Y-198625000D01*
X172538000Y-197875000D01*
X172539204Y-197850496D01*
X172542804Y-197826227D01*
X172548765Y-197802429D01*
X172557030Y-197779329D01*
X172567520Y-197757151D01*
X172580133Y-197736107D01*
X172594747Y-197716402D01*
X172611223Y-197698223D01*
X172629402Y-197681747D01*
X172649107Y-197667133D01*
X172670151Y-197654520D01*
X172692329Y-197644030D01*
X172715429Y-197635765D01*
X172739227Y-197629804D01*
X172763496Y-197626204D01*
X172788000Y-197625000D01*
X174938000Y-197625000D01*
X174962504Y-197626204D01*
X174962504Y-197626204D01*
G37*
D24*
X173863000Y-198250000D03*
D23*
G36*
X174962504Y-194826204D02*
X174986773Y-194829804D01*
X175010571Y-194835765D01*
X175033671Y-194844030D01*
X175055849Y-194854520D01*
X175076893Y-194867133D01*
X175096598Y-194881747D01*
X175114777Y-194898223D01*
X175131253Y-194916402D01*
X175145867Y-194936107D01*
X175158480Y-194957151D01*
X175168970Y-194979329D01*
X175177235Y-195002429D01*
X175183196Y-195026227D01*
X175186796Y-195050496D01*
X175188000Y-195075000D01*
X175188000Y-195825000D01*
X175186796Y-195849504D01*
X175183196Y-195873773D01*
X175177235Y-195897571D01*
X175168970Y-195920671D01*
X175158480Y-195942849D01*
X175145867Y-195963893D01*
X175131253Y-195983598D01*
X175114777Y-196001777D01*
X175096598Y-196018253D01*
X175076893Y-196032867D01*
X175055849Y-196045480D01*
X175033671Y-196055970D01*
X175010571Y-196064235D01*
X174986773Y-196070196D01*
X174962504Y-196073796D01*
X174938000Y-196075000D01*
X172788000Y-196075000D01*
X172763496Y-196073796D01*
X172739227Y-196070196D01*
X172715429Y-196064235D01*
X172692329Y-196055970D01*
X172670151Y-196045480D01*
X172649107Y-196032867D01*
X172629402Y-196018253D01*
X172611223Y-196001777D01*
X172594747Y-195983598D01*
X172580133Y-195963893D01*
X172567520Y-195942849D01*
X172557030Y-195920671D01*
X172548765Y-195897571D01*
X172542804Y-195873773D01*
X172539204Y-195849504D01*
X172538000Y-195825000D01*
X172538000Y-195075000D01*
X172539204Y-195050496D01*
X172542804Y-195026227D01*
X172548765Y-195002429D01*
X172557030Y-194979329D01*
X172567520Y-194957151D01*
X172580133Y-194936107D01*
X172594747Y-194916402D01*
X172611223Y-194898223D01*
X172629402Y-194881747D01*
X172649107Y-194867133D01*
X172670151Y-194854520D01*
X172692329Y-194844030D01*
X172715429Y-194835765D01*
X172739227Y-194829804D01*
X172763496Y-194826204D01*
X172788000Y-194825000D01*
X174938000Y-194825000D01*
X174962504Y-194826204D01*
X174962504Y-194826204D01*
G37*
D24*
X173863000Y-195450000D03*
G04 #@! TD*
D23*
G04 #@! TO.C,C21*
G36*
X188297504Y-143391204D02*
X188321773Y-143394804D01*
X188345571Y-143400765D01*
X188368671Y-143409030D01*
X188390849Y-143419520D01*
X188411893Y-143432133D01*
X188431598Y-143446747D01*
X188449777Y-143463223D01*
X188466253Y-143481402D01*
X188480867Y-143501107D01*
X188493480Y-143522151D01*
X188503970Y-143544329D01*
X188512235Y-143567429D01*
X188518196Y-143591227D01*
X188521796Y-143615496D01*
X188523000Y-143640000D01*
X188523000Y-144390000D01*
X188521796Y-144414504D01*
X188518196Y-144438773D01*
X188512235Y-144462571D01*
X188503970Y-144485671D01*
X188493480Y-144507849D01*
X188480867Y-144528893D01*
X188466253Y-144548598D01*
X188449777Y-144566777D01*
X188431598Y-144583253D01*
X188411893Y-144597867D01*
X188390849Y-144610480D01*
X188368671Y-144620970D01*
X188345571Y-144629235D01*
X188321773Y-144635196D01*
X188297504Y-144638796D01*
X188273000Y-144640000D01*
X186123000Y-144640000D01*
X186098496Y-144638796D01*
X186074227Y-144635196D01*
X186050429Y-144629235D01*
X186027329Y-144620970D01*
X186005151Y-144610480D01*
X185984107Y-144597867D01*
X185964402Y-144583253D01*
X185946223Y-144566777D01*
X185929747Y-144548598D01*
X185915133Y-144528893D01*
X185902520Y-144507849D01*
X185892030Y-144485671D01*
X185883765Y-144462571D01*
X185877804Y-144438773D01*
X185874204Y-144414504D01*
X185873000Y-144390000D01*
X185873000Y-143640000D01*
X185874204Y-143615496D01*
X185877804Y-143591227D01*
X185883765Y-143567429D01*
X185892030Y-143544329D01*
X185902520Y-143522151D01*
X185915133Y-143501107D01*
X185929747Y-143481402D01*
X185946223Y-143463223D01*
X185964402Y-143446747D01*
X185984107Y-143432133D01*
X186005151Y-143419520D01*
X186027329Y-143409030D01*
X186050429Y-143400765D01*
X186074227Y-143394804D01*
X186098496Y-143391204D01*
X186123000Y-143390000D01*
X188273000Y-143390000D01*
X188297504Y-143391204D01*
X188297504Y-143391204D01*
G37*
D24*
X187198000Y-144015000D03*
D23*
G36*
X188297504Y-146191204D02*
X188321773Y-146194804D01*
X188345571Y-146200765D01*
X188368671Y-146209030D01*
X188390849Y-146219520D01*
X188411893Y-146232133D01*
X188431598Y-146246747D01*
X188449777Y-146263223D01*
X188466253Y-146281402D01*
X188480867Y-146301107D01*
X188493480Y-146322151D01*
X188503970Y-146344329D01*
X188512235Y-146367429D01*
X188518196Y-146391227D01*
X188521796Y-146415496D01*
X188523000Y-146440000D01*
X188523000Y-147190000D01*
X188521796Y-147214504D01*
X188518196Y-147238773D01*
X188512235Y-147262571D01*
X188503970Y-147285671D01*
X188493480Y-147307849D01*
X188480867Y-147328893D01*
X188466253Y-147348598D01*
X188449777Y-147366777D01*
X188431598Y-147383253D01*
X188411893Y-147397867D01*
X188390849Y-147410480D01*
X188368671Y-147420970D01*
X188345571Y-147429235D01*
X188321773Y-147435196D01*
X188297504Y-147438796D01*
X188273000Y-147440000D01*
X186123000Y-147440000D01*
X186098496Y-147438796D01*
X186074227Y-147435196D01*
X186050429Y-147429235D01*
X186027329Y-147420970D01*
X186005151Y-147410480D01*
X185984107Y-147397867D01*
X185964402Y-147383253D01*
X185946223Y-147366777D01*
X185929747Y-147348598D01*
X185915133Y-147328893D01*
X185902520Y-147307849D01*
X185892030Y-147285671D01*
X185883765Y-147262571D01*
X185877804Y-147238773D01*
X185874204Y-147214504D01*
X185873000Y-147190000D01*
X185873000Y-146440000D01*
X185874204Y-146415496D01*
X185877804Y-146391227D01*
X185883765Y-146367429D01*
X185892030Y-146344329D01*
X185902520Y-146322151D01*
X185915133Y-146301107D01*
X185929747Y-146281402D01*
X185946223Y-146263223D01*
X185964402Y-146246747D01*
X185984107Y-146232133D01*
X186005151Y-146219520D01*
X186027329Y-146209030D01*
X186050429Y-146200765D01*
X186074227Y-146194804D01*
X186098496Y-146191204D01*
X186123000Y-146190000D01*
X188273000Y-146190000D01*
X188297504Y-146191204D01*
X188297504Y-146191204D01*
G37*
D24*
X187198000Y-146815000D03*
G04 #@! TD*
D23*
G04 #@! TO.C,C22*
G36*
X188297504Y-160536204D02*
X188321773Y-160539804D01*
X188345571Y-160545765D01*
X188368671Y-160554030D01*
X188390849Y-160564520D01*
X188411893Y-160577133D01*
X188431598Y-160591747D01*
X188449777Y-160608223D01*
X188466253Y-160626402D01*
X188480867Y-160646107D01*
X188493480Y-160667151D01*
X188503970Y-160689329D01*
X188512235Y-160712429D01*
X188518196Y-160736227D01*
X188521796Y-160760496D01*
X188523000Y-160785000D01*
X188523000Y-161535000D01*
X188521796Y-161559504D01*
X188518196Y-161583773D01*
X188512235Y-161607571D01*
X188503970Y-161630671D01*
X188493480Y-161652849D01*
X188480867Y-161673893D01*
X188466253Y-161693598D01*
X188449777Y-161711777D01*
X188431598Y-161728253D01*
X188411893Y-161742867D01*
X188390849Y-161755480D01*
X188368671Y-161765970D01*
X188345571Y-161774235D01*
X188321773Y-161780196D01*
X188297504Y-161783796D01*
X188273000Y-161785000D01*
X186123000Y-161785000D01*
X186098496Y-161783796D01*
X186074227Y-161780196D01*
X186050429Y-161774235D01*
X186027329Y-161765970D01*
X186005151Y-161755480D01*
X185984107Y-161742867D01*
X185964402Y-161728253D01*
X185946223Y-161711777D01*
X185929747Y-161693598D01*
X185915133Y-161673893D01*
X185902520Y-161652849D01*
X185892030Y-161630671D01*
X185883765Y-161607571D01*
X185877804Y-161583773D01*
X185874204Y-161559504D01*
X185873000Y-161535000D01*
X185873000Y-160785000D01*
X185874204Y-160760496D01*
X185877804Y-160736227D01*
X185883765Y-160712429D01*
X185892030Y-160689329D01*
X185902520Y-160667151D01*
X185915133Y-160646107D01*
X185929747Y-160626402D01*
X185946223Y-160608223D01*
X185964402Y-160591747D01*
X185984107Y-160577133D01*
X186005151Y-160564520D01*
X186027329Y-160554030D01*
X186050429Y-160545765D01*
X186074227Y-160539804D01*
X186098496Y-160536204D01*
X186123000Y-160535000D01*
X188273000Y-160535000D01*
X188297504Y-160536204D01*
X188297504Y-160536204D01*
G37*
D24*
X187198000Y-161160000D03*
D23*
G36*
X188297504Y-163336204D02*
X188321773Y-163339804D01*
X188345571Y-163345765D01*
X188368671Y-163354030D01*
X188390849Y-163364520D01*
X188411893Y-163377133D01*
X188431598Y-163391747D01*
X188449777Y-163408223D01*
X188466253Y-163426402D01*
X188480867Y-163446107D01*
X188493480Y-163467151D01*
X188503970Y-163489329D01*
X188512235Y-163512429D01*
X188518196Y-163536227D01*
X188521796Y-163560496D01*
X188523000Y-163585000D01*
X188523000Y-164335000D01*
X188521796Y-164359504D01*
X188518196Y-164383773D01*
X188512235Y-164407571D01*
X188503970Y-164430671D01*
X188493480Y-164452849D01*
X188480867Y-164473893D01*
X188466253Y-164493598D01*
X188449777Y-164511777D01*
X188431598Y-164528253D01*
X188411893Y-164542867D01*
X188390849Y-164555480D01*
X188368671Y-164565970D01*
X188345571Y-164574235D01*
X188321773Y-164580196D01*
X188297504Y-164583796D01*
X188273000Y-164585000D01*
X186123000Y-164585000D01*
X186098496Y-164583796D01*
X186074227Y-164580196D01*
X186050429Y-164574235D01*
X186027329Y-164565970D01*
X186005151Y-164555480D01*
X185984107Y-164542867D01*
X185964402Y-164528253D01*
X185946223Y-164511777D01*
X185929747Y-164493598D01*
X185915133Y-164473893D01*
X185902520Y-164452849D01*
X185892030Y-164430671D01*
X185883765Y-164407571D01*
X185877804Y-164383773D01*
X185874204Y-164359504D01*
X185873000Y-164335000D01*
X185873000Y-163585000D01*
X185874204Y-163560496D01*
X185877804Y-163536227D01*
X185883765Y-163512429D01*
X185892030Y-163489329D01*
X185902520Y-163467151D01*
X185915133Y-163446107D01*
X185929747Y-163426402D01*
X185946223Y-163408223D01*
X185964402Y-163391747D01*
X185984107Y-163377133D01*
X186005151Y-163364520D01*
X186027329Y-163354030D01*
X186050429Y-163345765D01*
X186074227Y-163339804D01*
X186098496Y-163336204D01*
X186123000Y-163335000D01*
X188273000Y-163335000D01*
X188297504Y-163336204D01*
X188297504Y-163336204D01*
G37*
D24*
X187198000Y-163960000D03*
G04 #@! TD*
D23*
G04 #@! TO.C,C23*
G36*
X188297504Y-177681204D02*
X188321773Y-177684804D01*
X188345571Y-177690765D01*
X188368671Y-177699030D01*
X188390849Y-177709520D01*
X188411893Y-177722133D01*
X188431598Y-177736747D01*
X188449777Y-177753223D01*
X188466253Y-177771402D01*
X188480867Y-177791107D01*
X188493480Y-177812151D01*
X188503970Y-177834329D01*
X188512235Y-177857429D01*
X188518196Y-177881227D01*
X188521796Y-177905496D01*
X188523000Y-177930000D01*
X188523000Y-178680000D01*
X188521796Y-178704504D01*
X188518196Y-178728773D01*
X188512235Y-178752571D01*
X188503970Y-178775671D01*
X188493480Y-178797849D01*
X188480867Y-178818893D01*
X188466253Y-178838598D01*
X188449777Y-178856777D01*
X188431598Y-178873253D01*
X188411893Y-178887867D01*
X188390849Y-178900480D01*
X188368671Y-178910970D01*
X188345571Y-178919235D01*
X188321773Y-178925196D01*
X188297504Y-178928796D01*
X188273000Y-178930000D01*
X186123000Y-178930000D01*
X186098496Y-178928796D01*
X186074227Y-178925196D01*
X186050429Y-178919235D01*
X186027329Y-178910970D01*
X186005151Y-178900480D01*
X185984107Y-178887867D01*
X185964402Y-178873253D01*
X185946223Y-178856777D01*
X185929747Y-178838598D01*
X185915133Y-178818893D01*
X185902520Y-178797849D01*
X185892030Y-178775671D01*
X185883765Y-178752571D01*
X185877804Y-178728773D01*
X185874204Y-178704504D01*
X185873000Y-178680000D01*
X185873000Y-177930000D01*
X185874204Y-177905496D01*
X185877804Y-177881227D01*
X185883765Y-177857429D01*
X185892030Y-177834329D01*
X185902520Y-177812151D01*
X185915133Y-177791107D01*
X185929747Y-177771402D01*
X185946223Y-177753223D01*
X185964402Y-177736747D01*
X185984107Y-177722133D01*
X186005151Y-177709520D01*
X186027329Y-177699030D01*
X186050429Y-177690765D01*
X186074227Y-177684804D01*
X186098496Y-177681204D01*
X186123000Y-177680000D01*
X188273000Y-177680000D01*
X188297504Y-177681204D01*
X188297504Y-177681204D01*
G37*
D24*
X187198000Y-178305000D03*
D23*
G36*
X188297504Y-180481204D02*
X188321773Y-180484804D01*
X188345571Y-180490765D01*
X188368671Y-180499030D01*
X188390849Y-180509520D01*
X188411893Y-180522133D01*
X188431598Y-180536747D01*
X188449777Y-180553223D01*
X188466253Y-180571402D01*
X188480867Y-180591107D01*
X188493480Y-180612151D01*
X188503970Y-180634329D01*
X188512235Y-180657429D01*
X188518196Y-180681227D01*
X188521796Y-180705496D01*
X188523000Y-180730000D01*
X188523000Y-181480000D01*
X188521796Y-181504504D01*
X188518196Y-181528773D01*
X188512235Y-181552571D01*
X188503970Y-181575671D01*
X188493480Y-181597849D01*
X188480867Y-181618893D01*
X188466253Y-181638598D01*
X188449777Y-181656777D01*
X188431598Y-181673253D01*
X188411893Y-181687867D01*
X188390849Y-181700480D01*
X188368671Y-181710970D01*
X188345571Y-181719235D01*
X188321773Y-181725196D01*
X188297504Y-181728796D01*
X188273000Y-181730000D01*
X186123000Y-181730000D01*
X186098496Y-181728796D01*
X186074227Y-181725196D01*
X186050429Y-181719235D01*
X186027329Y-181710970D01*
X186005151Y-181700480D01*
X185984107Y-181687867D01*
X185964402Y-181673253D01*
X185946223Y-181656777D01*
X185929747Y-181638598D01*
X185915133Y-181618893D01*
X185902520Y-181597849D01*
X185892030Y-181575671D01*
X185883765Y-181552571D01*
X185877804Y-181528773D01*
X185874204Y-181504504D01*
X185873000Y-181480000D01*
X185873000Y-180730000D01*
X185874204Y-180705496D01*
X185877804Y-180681227D01*
X185883765Y-180657429D01*
X185892030Y-180634329D01*
X185902520Y-180612151D01*
X185915133Y-180591107D01*
X185929747Y-180571402D01*
X185946223Y-180553223D01*
X185964402Y-180536747D01*
X185984107Y-180522133D01*
X186005151Y-180509520D01*
X186027329Y-180499030D01*
X186050429Y-180490765D01*
X186074227Y-180484804D01*
X186098496Y-180481204D01*
X186123000Y-180480000D01*
X188273000Y-180480000D01*
X188297504Y-180481204D01*
X188297504Y-180481204D01*
G37*
D24*
X187198000Y-181105000D03*
G04 #@! TD*
D23*
G04 #@! TO.C,C24*
G36*
X188297504Y-197626204D02*
X188321773Y-197629804D01*
X188345571Y-197635765D01*
X188368671Y-197644030D01*
X188390849Y-197654520D01*
X188411893Y-197667133D01*
X188431598Y-197681747D01*
X188449777Y-197698223D01*
X188466253Y-197716402D01*
X188480867Y-197736107D01*
X188493480Y-197757151D01*
X188503970Y-197779329D01*
X188512235Y-197802429D01*
X188518196Y-197826227D01*
X188521796Y-197850496D01*
X188523000Y-197875000D01*
X188523000Y-198625000D01*
X188521796Y-198649504D01*
X188518196Y-198673773D01*
X188512235Y-198697571D01*
X188503970Y-198720671D01*
X188493480Y-198742849D01*
X188480867Y-198763893D01*
X188466253Y-198783598D01*
X188449777Y-198801777D01*
X188431598Y-198818253D01*
X188411893Y-198832867D01*
X188390849Y-198845480D01*
X188368671Y-198855970D01*
X188345571Y-198864235D01*
X188321773Y-198870196D01*
X188297504Y-198873796D01*
X188273000Y-198875000D01*
X186123000Y-198875000D01*
X186098496Y-198873796D01*
X186074227Y-198870196D01*
X186050429Y-198864235D01*
X186027329Y-198855970D01*
X186005151Y-198845480D01*
X185984107Y-198832867D01*
X185964402Y-198818253D01*
X185946223Y-198801777D01*
X185929747Y-198783598D01*
X185915133Y-198763893D01*
X185902520Y-198742849D01*
X185892030Y-198720671D01*
X185883765Y-198697571D01*
X185877804Y-198673773D01*
X185874204Y-198649504D01*
X185873000Y-198625000D01*
X185873000Y-197875000D01*
X185874204Y-197850496D01*
X185877804Y-197826227D01*
X185883765Y-197802429D01*
X185892030Y-197779329D01*
X185902520Y-197757151D01*
X185915133Y-197736107D01*
X185929747Y-197716402D01*
X185946223Y-197698223D01*
X185964402Y-197681747D01*
X185984107Y-197667133D01*
X186005151Y-197654520D01*
X186027329Y-197644030D01*
X186050429Y-197635765D01*
X186074227Y-197629804D01*
X186098496Y-197626204D01*
X186123000Y-197625000D01*
X188273000Y-197625000D01*
X188297504Y-197626204D01*
X188297504Y-197626204D01*
G37*
D24*
X187198000Y-198250000D03*
D23*
G36*
X188297504Y-194826204D02*
X188321773Y-194829804D01*
X188345571Y-194835765D01*
X188368671Y-194844030D01*
X188390849Y-194854520D01*
X188411893Y-194867133D01*
X188431598Y-194881747D01*
X188449777Y-194898223D01*
X188466253Y-194916402D01*
X188480867Y-194936107D01*
X188493480Y-194957151D01*
X188503970Y-194979329D01*
X188512235Y-195002429D01*
X188518196Y-195026227D01*
X188521796Y-195050496D01*
X188523000Y-195075000D01*
X188523000Y-195825000D01*
X188521796Y-195849504D01*
X188518196Y-195873773D01*
X188512235Y-195897571D01*
X188503970Y-195920671D01*
X188493480Y-195942849D01*
X188480867Y-195963893D01*
X188466253Y-195983598D01*
X188449777Y-196001777D01*
X188431598Y-196018253D01*
X188411893Y-196032867D01*
X188390849Y-196045480D01*
X188368671Y-196055970D01*
X188345571Y-196064235D01*
X188321773Y-196070196D01*
X188297504Y-196073796D01*
X188273000Y-196075000D01*
X186123000Y-196075000D01*
X186098496Y-196073796D01*
X186074227Y-196070196D01*
X186050429Y-196064235D01*
X186027329Y-196055970D01*
X186005151Y-196045480D01*
X185984107Y-196032867D01*
X185964402Y-196018253D01*
X185946223Y-196001777D01*
X185929747Y-195983598D01*
X185915133Y-195963893D01*
X185902520Y-195942849D01*
X185892030Y-195920671D01*
X185883765Y-195897571D01*
X185877804Y-195873773D01*
X185874204Y-195849504D01*
X185873000Y-195825000D01*
X185873000Y-195075000D01*
X185874204Y-195050496D01*
X185877804Y-195026227D01*
X185883765Y-195002429D01*
X185892030Y-194979329D01*
X185902520Y-194957151D01*
X185915133Y-194936107D01*
X185929747Y-194916402D01*
X185946223Y-194898223D01*
X185964402Y-194881747D01*
X185984107Y-194867133D01*
X186005151Y-194854520D01*
X186027329Y-194844030D01*
X186050429Y-194835765D01*
X186074227Y-194829804D01*
X186098496Y-194826204D01*
X186123000Y-194825000D01*
X188273000Y-194825000D01*
X188297504Y-194826204D01*
X188297504Y-194826204D01*
G37*
D24*
X187198000Y-195450000D03*
G04 #@! TD*
D23*
G04 #@! TO.C,C25*
G36*
X163913504Y-94505204D02*
X163937773Y-94508804D01*
X163961571Y-94514765D01*
X163984671Y-94523030D01*
X164006849Y-94533520D01*
X164027893Y-94546133D01*
X164047598Y-94560747D01*
X164065777Y-94577223D01*
X164082253Y-94595402D01*
X164096867Y-94615107D01*
X164109480Y-94636151D01*
X164119970Y-94658329D01*
X164128235Y-94681429D01*
X164134196Y-94705227D01*
X164137796Y-94729496D01*
X164139000Y-94754000D01*
X164139000Y-95504000D01*
X164137796Y-95528504D01*
X164134196Y-95552773D01*
X164128235Y-95576571D01*
X164119970Y-95599671D01*
X164109480Y-95621849D01*
X164096867Y-95642893D01*
X164082253Y-95662598D01*
X164065777Y-95680777D01*
X164047598Y-95697253D01*
X164027893Y-95711867D01*
X164006849Y-95724480D01*
X163984671Y-95734970D01*
X163961571Y-95743235D01*
X163937773Y-95749196D01*
X163913504Y-95752796D01*
X163889000Y-95754000D01*
X161739000Y-95754000D01*
X161714496Y-95752796D01*
X161690227Y-95749196D01*
X161666429Y-95743235D01*
X161643329Y-95734970D01*
X161621151Y-95724480D01*
X161600107Y-95711867D01*
X161580402Y-95697253D01*
X161562223Y-95680777D01*
X161545747Y-95662598D01*
X161531133Y-95642893D01*
X161518520Y-95621849D01*
X161508030Y-95599671D01*
X161499765Y-95576571D01*
X161493804Y-95552773D01*
X161490204Y-95528504D01*
X161489000Y-95504000D01*
X161489000Y-94754000D01*
X161490204Y-94729496D01*
X161493804Y-94705227D01*
X161499765Y-94681429D01*
X161508030Y-94658329D01*
X161518520Y-94636151D01*
X161531133Y-94615107D01*
X161545747Y-94595402D01*
X161562223Y-94577223D01*
X161580402Y-94560747D01*
X161600107Y-94546133D01*
X161621151Y-94533520D01*
X161643329Y-94523030D01*
X161666429Y-94514765D01*
X161690227Y-94508804D01*
X161714496Y-94505204D01*
X161739000Y-94504000D01*
X163889000Y-94504000D01*
X163913504Y-94505204D01*
X163913504Y-94505204D01*
G37*
D24*
X162814000Y-95129000D03*
D23*
G36*
X163913504Y-91705204D02*
X163937773Y-91708804D01*
X163961571Y-91714765D01*
X163984671Y-91723030D01*
X164006849Y-91733520D01*
X164027893Y-91746133D01*
X164047598Y-91760747D01*
X164065777Y-91777223D01*
X164082253Y-91795402D01*
X164096867Y-91815107D01*
X164109480Y-91836151D01*
X164119970Y-91858329D01*
X164128235Y-91881429D01*
X164134196Y-91905227D01*
X164137796Y-91929496D01*
X164139000Y-91954000D01*
X164139000Y-92704000D01*
X164137796Y-92728504D01*
X164134196Y-92752773D01*
X164128235Y-92776571D01*
X164119970Y-92799671D01*
X164109480Y-92821849D01*
X164096867Y-92842893D01*
X164082253Y-92862598D01*
X164065777Y-92880777D01*
X164047598Y-92897253D01*
X164027893Y-92911867D01*
X164006849Y-92924480D01*
X163984671Y-92934970D01*
X163961571Y-92943235D01*
X163937773Y-92949196D01*
X163913504Y-92952796D01*
X163889000Y-92954000D01*
X161739000Y-92954000D01*
X161714496Y-92952796D01*
X161690227Y-92949196D01*
X161666429Y-92943235D01*
X161643329Y-92934970D01*
X161621151Y-92924480D01*
X161600107Y-92911867D01*
X161580402Y-92897253D01*
X161562223Y-92880777D01*
X161545747Y-92862598D01*
X161531133Y-92842893D01*
X161518520Y-92821849D01*
X161508030Y-92799671D01*
X161499765Y-92776571D01*
X161493804Y-92752773D01*
X161490204Y-92728504D01*
X161489000Y-92704000D01*
X161489000Y-91954000D01*
X161490204Y-91929496D01*
X161493804Y-91905227D01*
X161499765Y-91881429D01*
X161508030Y-91858329D01*
X161518520Y-91836151D01*
X161531133Y-91815107D01*
X161545747Y-91795402D01*
X161562223Y-91777223D01*
X161580402Y-91760747D01*
X161600107Y-91746133D01*
X161621151Y-91733520D01*
X161643329Y-91723030D01*
X161666429Y-91714765D01*
X161690227Y-91708804D01*
X161714496Y-91705204D01*
X161739000Y-91704000D01*
X163889000Y-91704000D01*
X163913504Y-91705204D01*
X163913504Y-91705204D01*
G37*
D24*
X162814000Y-92329000D03*
G04 #@! TD*
D23*
G04 #@! TO.C,C26*
G36*
X175027504Y-45666204D02*
X175051773Y-45669804D01*
X175075571Y-45675765D01*
X175098671Y-45684030D01*
X175120849Y-45694520D01*
X175141893Y-45707133D01*
X175161598Y-45721747D01*
X175179777Y-45738223D01*
X175196253Y-45756402D01*
X175210867Y-45776107D01*
X175223480Y-45797151D01*
X175233970Y-45819329D01*
X175242235Y-45842429D01*
X175248196Y-45866227D01*
X175251796Y-45890496D01*
X175253000Y-45915000D01*
X175253000Y-48065000D01*
X175251796Y-48089504D01*
X175248196Y-48113773D01*
X175242235Y-48137571D01*
X175233970Y-48160671D01*
X175223480Y-48182849D01*
X175210867Y-48203893D01*
X175196253Y-48223598D01*
X175179777Y-48241777D01*
X175161598Y-48258253D01*
X175141893Y-48272867D01*
X175120849Y-48285480D01*
X175098671Y-48295970D01*
X175075571Y-48304235D01*
X175051773Y-48310196D01*
X175027504Y-48313796D01*
X175003000Y-48315000D01*
X174253000Y-48315000D01*
X174228496Y-48313796D01*
X174204227Y-48310196D01*
X174180429Y-48304235D01*
X174157329Y-48295970D01*
X174135151Y-48285480D01*
X174114107Y-48272867D01*
X174094402Y-48258253D01*
X174076223Y-48241777D01*
X174059747Y-48223598D01*
X174045133Y-48203893D01*
X174032520Y-48182849D01*
X174022030Y-48160671D01*
X174013765Y-48137571D01*
X174007804Y-48113773D01*
X174004204Y-48089504D01*
X174003000Y-48065000D01*
X174003000Y-45915000D01*
X174004204Y-45890496D01*
X174007804Y-45866227D01*
X174013765Y-45842429D01*
X174022030Y-45819329D01*
X174032520Y-45797151D01*
X174045133Y-45776107D01*
X174059747Y-45756402D01*
X174076223Y-45738223D01*
X174094402Y-45721747D01*
X174114107Y-45707133D01*
X174135151Y-45694520D01*
X174157329Y-45684030D01*
X174180429Y-45675765D01*
X174204227Y-45669804D01*
X174228496Y-45666204D01*
X174253000Y-45665000D01*
X175003000Y-45665000D01*
X175027504Y-45666204D01*
X175027504Y-45666204D01*
G37*
D24*
X174628000Y-46990000D03*
D23*
G36*
X172227504Y-45666204D02*
X172251773Y-45669804D01*
X172275571Y-45675765D01*
X172298671Y-45684030D01*
X172320849Y-45694520D01*
X172341893Y-45707133D01*
X172361598Y-45721747D01*
X172379777Y-45738223D01*
X172396253Y-45756402D01*
X172410867Y-45776107D01*
X172423480Y-45797151D01*
X172433970Y-45819329D01*
X172442235Y-45842429D01*
X172448196Y-45866227D01*
X172451796Y-45890496D01*
X172453000Y-45915000D01*
X172453000Y-48065000D01*
X172451796Y-48089504D01*
X172448196Y-48113773D01*
X172442235Y-48137571D01*
X172433970Y-48160671D01*
X172423480Y-48182849D01*
X172410867Y-48203893D01*
X172396253Y-48223598D01*
X172379777Y-48241777D01*
X172361598Y-48258253D01*
X172341893Y-48272867D01*
X172320849Y-48285480D01*
X172298671Y-48295970D01*
X172275571Y-48304235D01*
X172251773Y-48310196D01*
X172227504Y-48313796D01*
X172203000Y-48315000D01*
X171453000Y-48315000D01*
X171428496Y-48313796D01*
X171404227Y-48310196D01*
X171380429Y-48304235D01*
X171357329Y-48295970D01*
X171335151Y-48285480D01*
X171314107Y-48272867D01*
X171294402Y-48258253D01*
X171276223Y-48241777D01*
X171259747Y-48223598D01*
X171245133Y-48203893D01*
X171232520Y-48182849D01*
X171222030Y-48160671D01*
X171213765Y-48137571D01*
X171207804Y-48113773D01*
X171204204Y-48089504D01*
X171203000Y-48065000D01*
X171203000Y-45915000D01*
X171204204Y-45890496D01*
X171207804Y-45866227D01*
X171213765Y-45842429D01*
X171222030Y-45819329D01*
X171232520Y-45797151D01*
X171245133Y-45776107D01*
X171259747Y-45756402D01*
X171276223Y-45738223D01*
X171294402Y-45721747D01*
X171314107Y-45707133D01*
X171335151Y-45694520D01*
X171357329Y-45684030D01*
X171380429Y-45675765D01*
X171404227Y-45669804D01*
X171428496Y-45666204D01*
X171453000Y-45665000D01*
X172203000Y-45665000D01*
X172227504Y-45666204D01*
X172227504Y-45666204D01*
G37*
D24*
X171828000Y-46990000D03*
G04 #@! TD*
D23*
G04 #@! TO.C,C27*
G36*
X175027504Y-39316204D02*
X175051773Y-39319804D01*
X175075571Y-39325765D01*
X175098671Y-39334030D01*
X175120849Y-39344520D01*
X175141893Y-39357133D01*
X175161598Y-39371747D01*
X175179777Y-39388223D01*
X175196253Y-39406402D01*
X175210867Y-39426107D01*
X175223480Y-39447151D01*
X175233970Y-39469329D01*
X175242235Y-39492429D01*
X175248196Y-39516227D01*
X175251796Y-39540496D01*
X175253000Y-39565000D01*
X175253000Y-41715000D01*
X175251796Y-41739504D01*
X175248196Y-41763773D01*
X175242235Y-41787571D01*
X175233970Y-41810671D01*
X175223480Y-41832849D01*
X175210867Y-41853893D01*
X175196253Y-41873598D01*
X175179777Y-41891777D01*
X175161598Y-41908253D01*
X175141893Y-41922867D01*
X175120849Y-41935480D01*
X175098671Y-41945970D01*
X175075571Y-41954235D01*
X175051773Y-41960196D01*
X175027504Y-41963796D01*
X175003000Y-41965000D01*
X174253000Y-41965000D01*
X174228496Y-41963796D01*
X174204227Y-41960196D01*
X174180429Y-41954235D01*
X174157329Y-41945970D01*
X174135151Y-41935480D01*
X174114107Y-41922867D01*
X174094402Y-41908253D01*
X174076223Y-41891777D01*
X174059747Y-41873598D01*
X174045133Y-41853893D01*
X174032520Y-41832849D01*
X174022030Y-41810671D01*
X174013765Y-41787571D01*
X174007804Y-41763773D01*
X174004204Y-41739504D01*
X174003000Y-41715000D01*
X174003000Y-39565000D01*
X174004204Y-39540496D01*
X174007804Y-39516227D01*
X174013765Y-39492429D01*
X174022030Y-39469329D01*
X174032520Y-39447151D01*
X174045133Y-39426107D01*
X174059747Y-39406402D01*
X174076223Y-39388223D01*
X174094402Y-39371747D01*
X174114107Y-39357133D01*
X174135151Y-39344520D01*
X174157329Y-39334030D01*
X174180429Y-39325765D01*
X174204227Y-39319804D01*
X174228496Y-39316204D01*
X174253000Y-39315000D01*
X175003000Y-39315000D01*
X175027504Y-39316204D01*
X175027504Y-39316204D01*
G37*
D24*
X174628000Y-40640000D03*
D23*
G36*
X172227504Y-39316204D02*
X172251773Y-39319804D01*
X172275571Y-39325765D01*
X172298671Y-39334030D01*
X172320849Y-39344520D01*
X172341893Y-39357133D01*
X172361598Y-39371747D01*
X172379777Y-39388223D01*
X172396253Y-39406402D01*
X172410867Y-39426107D01*
X172423480Y-39447151D01*
X172433970Y-39469329D01*
X172442235Y-39492429D01*
X172448196Y-39516227D01*
X172451796Y-39540496D01*
X172453000Y-39565000D01*
X172453000Y-41715000D01*
X172451796Y-41739504D01*
X172448196Y-41763773D01*
X172442235Y-41787571D01*
X172433970Y-41810671D01*
X172423480Y-41832849D01*
X172410867Y-41853893D01*
X172396253Y-41873598D01*
X172379777Y-41891777D01*
X172361598Y-41908253D01*
X172341893Y-41922867D01*
X172320849Y-41935480D01*
X172298671Y-41945970D01*
X172275571Y-41954235D01*
X172251773Y-41960196D01*
X172227504Y-41963796D01*
X172203000Y-41965000D01*
X171453000Y-41965000D01*
X171428496Y-41963796D01*
X171404227Y-41960196D01*
X171380429Y-41954235D01*
X171357329Y-41945970D01*
X171335151Y-41935480D01*
X171314107Y-41922867D01*
X171294402Y-41908253D01*
X171276223Y-41891777D01*
X171259747Y-41873598D01*
X171245133Y-41853893D01*
X171232520Y-41832849D01*
X171222030Y-41810671D01*
X171213765Y-41787571D01*
X171207804Y-41763773D01*
X171204204Y-41739504D01*
X171203000Y-41715000D01*
X171203000Y-39565000D01*
X171204204Y-39540496D01*
X171207804Y-39516227D01*
X171213765Y-39492429D01*
X171222030Y-39469329D01*
X171232520Y-39447151D01*
X171245133Y-39426107D01*
X171259747Y-39406402D01*
X171276223Y-39388223D01*
X171294402Y-39371747D01*
X171314107Y-39357133D01*
X171335151Y-39344520D01*
X171357329Y-39334030D01*
X171380429Y-39325765D01*
X171404227Y-39319804D01*
X171428496Y-39316204D01*
X171453000Y-39315000D01*
X172203000Y-39315000D01*
X172227504Y-39316204D01*
X172227504Y-39316204D01*
G37*
D24*
X171828000Y-40640000D03*
G04 #@! TD*
D23*
G04 #@! TO.C,C28*
G36*
X166772504Y-45666204D02*
X166796773Y-45669804D01*
X166820571Y-45675765D01*
X166843671Y-45684030D01*
X166865849Y-45694520D01*
X166886893Y-45707133D01*
X166906598Y-45721747D01*
X166924777Y-45738223D01*
X166941253Y-45756402D01*
X166955867Y-45776107D01*
X166968480Y-45797151D01*
X166978970Y-45819329D01*
X166987235Y-45842429D01*
X166993196Y-45866227D01*
X166996796Y-45890496D01*
X166998000Y-45915000D01*
X166998000Y-48065000D01*
X166996796Y-48089504D01*
X166993196Y-48113773D01*
X166987235Y-48137571D01*
X166978970Y-48160671D01*
X166968480Y-48182849D01*
X166955867Y-48203893D01*
X166941253Y-48223598D01*
X166924777Y-48241777D01*
X166906598Y-48258253D01*
X166886893Y-48272867D01*
X166865849Y-48285480D01*
X166843671Y-48295970D01*
X166820571Y-48304235D01*
X166796773Y-48310196D01*
X166772504Y-48313796D01*
X166748000Y-48315000D01*
X165998000Y-48315000D01*
X165973496Y-48313796D01*
X165949227Y-48310196D01*
X165925429Y-48304235D01*
X165902329Y-48295970D01*
X165880151Y-48285480D01*
X165859107Y-48272867D01*
X165839402Y-48258253D01*
X165821223Y-48241777D01*
X165804747Y-48223598D01*
X165790133Y-48203893D01*
X165777520Y-48182849D01*
X165767030Y-48160671D01*
X165758765Y-48137571D01*
X165752804Y-48113773D01*
X165749204Y-48089504D01*
X165748000Y-48065000D01*
X165748000Y-45915000D01*
X165749204Y-45890496D01*
X165752804Y-45866227D01*
X165758765Y-45842429D01*
X165767030Y-45819329D01*
X165777520Y-45797151D01*
X165790133Y-45776107D01*
X165804747Y-45756402D01*
X165821223Y-45738223D01*
X165839402Y-45721747D01*
X165859107Y-45707133D01*
X165880151Y-45694520D01*
X165902329Y-45684030D01*
X165925429Y-45675765D01*
X165949227Y-45669804D01*
X165973496Y-45666204D01*
X165998000Y-45665000D01*
X166748000Y-45665000D01*
X166772504Y-45666204D01*
X166772504Y-45666204D01*
G37*
D24*
X166373000Y-46990000D03*
D23*
G36*
X163972504Y-45666204D02*
X163996773Y-45669804D01*
X164020571Y-45675765D01*
X164043671Y-45684030D01*
X164065849Y-45694520D01*
X164086893Y-45707133D01*
X164106598Y-45721747D01*
X164124777Y-45738223D01*
X164141253Y-45756402D01*
X164155867Y-45776107D01*
X164168480Y-45797151D01*
X164178970Y-45819329D01*
X164187235Y-45842429D01*
X164193196Y-45866227D01*
X164196796Y-45890496D01*
X164198000Y-45915000D01*
X164198000Y-48065000D01*
X164196796Y-48089504D01*
X164193196Y-48113773D01*
X164187235Y-48137571D01*
X164178970Y-48160671D01*
X164168480Y-48182849D01*
X164155867Y-48203893D01*
X164141253Y-48223598D01*
X164124777Y-48241777D01*
X164106598Y-48258253D01*
X164086893Y-48272867D01*
X164065849Y-48285480D01*
X164043671Y-48295970D01*
X164020571Y-48304235D01*
X163996773Y-48310196D01*
X163972504Y-48313796D01*
X163948000Y-48315000D01*
X163198000Y-48315000D01*
X163173496Y-48313796D01*
X163149227Y-48310196D01*
X163125429Y-48304235D01*
X163102329Y-48295970D01*
X163080151Y-48285480D01*
X163059107Y-48272867D01*
X163039402Y-48258253D01*
X163021223Y-48241777D01*
X163004747Y-48223598D01*
X162990133Y-48203893D01*
X162977520Y-48182849D01*
X162967030Y-48160671D01*
X162958765Y-48137571D01*
X162952804Y-48113773D01*
X162949204Y-48089504D01*
X162948000Y-48065000D01*
X162948000Y-45915000D01*
X162949204Y-45890496D01*
X162952804Y-45866227D01*
X162958765Y-45842429D01*
X162967030Y-45819329D01*
X162977520Y-45797151D01*
X162990133Y-45776107D01*
X163004747Y-45756402D01*
X163021223Y-45738223D01*
X163039402Y-45721747D01*
X163059107Y-45707133D01*
X163080151Y-45694520D01*
X163102329Y-45684030D01*
X163125429Y-45675765D01*
X163149227Y-45669804D01*
X163173496Y-45666204D01*
X163198000Y-45665000D01*
X163948000Y-45665000D01*
X163972504Y-45666204D01*
X163972504Y-45666204D01*
G37*
D24*
X163573000Y-46990000D03*
G04 #@! TD*
D23*
G04 #@! TO.C,C29*
G36*
X163972504Y-39316204D02*
X163996773Y-39319804D01*
X164020571Y-39325765D01*
X164043671Y-39334030D01*
X164065849Y-39344520D01*
X164086893Y-39357133D01*
X164106598Y-39371747D01*
X164124777Y-39388223D01*
X164141253Y-39406402D01*
X164155867Y-39426107D01*
X164168480Y-39447151D01*
X164178970Y-39469329D01*
X164187235Y-39492429D01*
X164193196Y-39516227D01*
X164196796Y-39540496D01*
X164198000Y-39565000D01*
X164198000Y-41715000D01*
X164196796Y-41739504D01*
X164193196Y-41763773D01*
X164187235Y-41787571D01*
X164178970Y-41810671D01*
X164168480Y-41832849D01*
X164155867Y-41853893D01*
X164141253Y-41873598D01*
X164124777Y-41891777D01*
X164106598Y-41908253D01*
X164086893Y-41922867D01*
X164065849Y-41935480D01*
X164043671Y-41945970D01*
X164020571Y-41954235D01*
X163996773Y-41960196D01*
X163972504Y-41963796D01*
X163948000Y-41965000D01*
X163198000Y-41965000D01*
X163173496Y-41963796D01*
X163149227Y-41960196D01*
X163125429Y-41954235D01*
X163102329Y-41945970D01*
X163080151Y-41935480D01*
X163059107Y-41922867D01*
X163039402Y-41908253D01*
X163021223Y-41891777D01*
X163004747Y-41873598D01*
X162990133Y-41853893D01*
X162977520Y-41832849D01*
X162967030Y-41810671D01*
X162958765Y-41787571D01*
X162952804Y-41763773D01*
X162949204Y-41739504D01*
X162948000Y-41715000D01*
X162948000Y-39565000D01*
X162949204Y-39540496D01*
X162952804Y-39516227D01*
X162958765Y-39492429D01*
X162967030Y-39469329D01*
X162977520Y-39447151D01*
X162990133Y-39426107D01*
X163004747Y-39406402D01*
X163021223Y-39388223D01*
X163039402Y-39371747D01*
X163059107Y-39357133D01*
X163080151Y-39344520D01*
X163102329Y-39334030D01*
X163125429Y-39325765D01*
X163149227Y-39319804D01*
X163173496Y-39316204D01*
X163198000Y-39315000D01*
X163948000Y-39315000D01*
X163972504Y-39316204D01*
X163972504Y-39316204D01*
G37*
D24*
X163573000Y-40640000D03*
D23*
G36*
X166772504Y-39316204D02*
X166796773Y-39319804D01*
X166820571Y-39325765D01*
X166843671Y-39334030D01*
X166865849Y-39344520D01*
X166886893Y-39357133D01*
X166906598Y-39371747D01*
X166924777Y-39388223D01*
X166941253Y-39406402D01*
X166955867Y-39426107D01*
X166968480Y-39447151D01*
X166978970Y-39469329D01*
X166987235Y-39492429D01*
X166993196Y-39516227D01*
X166996796Y-39540496D01*
X166998000Y-39565000D01*
X166998000Y-41715000D01*
X166996796Y-41739504D01*
X166993196Y-41763773D01*
X166987235Y-41787571D01*
X166978970Y-41810671D01*
X166968480Y-41832849D01*
X166955867Y-41853893D01*
X166941253Y-41873598D01*
X166924777Y-41891777D01*
X166906598Y-41908253D01*
X166886893Y-41922867D01*
X166865849Y-41935480D01*
X166843671Y-41945970D01*
X166820571Y-41954235D01*
X166796773Y-41960196D01*
X166772504Y-41963796D01*
X166748000Y-41965000D01*
X165998000Y-41965000D01*
X165973496Y-41963796D01*
X165949227Y-41960196D01*
X165925429Y-41954235D01*
X165902329Y-41945970D01*
X165880151Y-41935480D01*
X165859107Y-41922867D01*
X165839402Y-41908253D01*
X165821223Y-41891777D01*
X165804747Y-41873598D01*
X165790133Y-41853893D01*
X165777520Y-41832849D01*
X165767030Y-41810671D01*
X165758765Y-41787571D01*
X165752804Y-41763773D01*
X165749204Y-41739504D01*
X165748000Y-41715000D01*
X165748000Y-39565000D01*
X165749204Y-39540496D01*
X165752804Y-39516227D01*
X165758765Y-39492429D01*
X165767030Y-39469329D01*
X165777520Y-39447151D01*
X165790133Y-39426107D01*
X165804747Y-39406402D01*
X165821223Y-39388223D01*
X165839402Y-39371747D01*
X165859107Y-39357133D01*
X165880151Y-39344520D01*
X165902329Y-39334030D01*
X165925429Y-39325765D01*
X165949227Y-39319804D01*
X165973496Y-39316204D01*
X165998000Y-39315000D01*
X166748000Y-39315000D01*
X166772504Y-39316204D01*
X166772504Y-39316204D01*
G37*
D24*
X166373000Y-40640000D03*
G04 #@! TD*
D17*
G04 #@! TO.C,R29*
X185293000Y-107950000D03*
D16*
X180213000Y-107950000D03*
G04 #@! TD*
D17*
G04 #@! TO.C,R30*
X185293000Y-101509000D03*
D16*
X180213000Y-101509000D03*
G04 #@! TD*
G04 #@! TO.C,R31*
X185293000Y-95068600D03*
D17*
X180213000Y-95068600D03*
G04 #@! TD*
D16*
G04 #@! TO.C,R32*
X185293000Y-88627900D03*
D17*
X180213000Y-88627900D03*
G04 #@! TD*
G04 #@! TO.C,R33*
X180213000Y-82187100D03*
D16*
X185293000Y-82187100D03*
G04 #@! TD*
G04 #@! TO.C,R34*
X185293000Y-75746400D03*
D17*
X180213000Y-75746400D03*
G04 #@! TD*
G04 #@! TO.C,R35*
X180213000Y-69305700D03*
D16*
X185293000Y-69305700D03*
G04 #@! TD*
G04 #@! TO.C,R36*
X185293000Y-62865000D03*
D17*
X180213000Y-62865000D03*
G04 #@! TD*
G04 #@! TO.C,WS2812B_R1*
X124396000Y-112586000D03*
D16*
X119316000Y-112586000D03*
G04 #@! TD*
M02*
